<?xml version="1.0" standalone="no"?>
<!DOCTYPE svg PUBLIC "-//W3C//DTD SVG 1.1//EN" "http://www.w3.org/Graphics/SVG/1.1/DTD/svg11.dtd" >
<!--
2013-9-30: Created.
-->
<svg>
<metadata>
Created by iconfont
</metadata>
<defs>

<font id="iconfont" horiz-adv-x="1024" >
  <font-face
    font-family="iconfont"
    font-weight="500"
    font-stretch="normal"
    units-per-em="1024"
    ascent="896"
    descent="-128"
  />
    <missing-glyph />
    
    <glyph glyph-name="later" unicode="&#59032;" d="M308.354 559.529l271.528-271.529-271.528-271.529c-24.994-24.994-24.994-65.516 0-90.51 24.993-24.994 65.516-24.994 90.51 0l316.783 316.784c24.993 24.994 24.993 65.516 0 90.51l-316.783 316.784c-24.994 24.994-65.517 24.994-90.511 0s-24.994-65.516 0.001-90.51z"  horiz-adv-x="1024" />

    
    <glyph glyph-name="before" unicode="&#59033;" d="M715.646 650.039c-24.994 24.994-65.516 24.994-90.51 0l-316.782-316.784c-24.994-24.994-24.994-65.516 0-90.51l316.783-316.784c24.994-24.994 65.516-24.994 90.51 0s24.994 65.516 0 90.51l-271.529 271.529 271.528 271.529c24.995 24.994 24.995 65.516 0 90.51z"  horiz-adv-x="1024" />

    
    <glyph glyph-name="map8" unicode="&#59095;" d="M512 648.352c187.904 0 340.352-152.384 340.352-340.352 0-187.84-152.512-340.352-340.352-340.352-188.032 0-340.352 152.512-340.352 340.352C171.648 495.968 324.032 648.352 512 648.352z"  horiz-adv-x="1024" />

    
    <glyph glyph-name="map2" unicode="&#59088;" d="M511.971557-128C257.49325-128 0-68.042442 0 46.610744 0 141.325482 165.565913 185.582579 264.262652 203.530026L275.924226 139.81801C116.388201 110.891617 64.792845 64.501305 64.792845 46.610744 64.792845 7.900006 234.65363-63.320927 512.028443-63.320927 789.374813-63.320927 959.121827 7.814677 959.121827 46.610744 959.121827 65.582134 915.035387 109.554803 748.075774 139.81801L759.737348 203.530026C935.002278 171.617132 1023.943114 118.884062 1023.943114 46.610744 1023.943114-68.042442 766.392978-128 511.971557-128ZM535.03872 30.455197C529.947447 22.889395 521.414588 18.338537 512.284429 18.338537L512.284429 18.338537C503.154269 18.338537 494.649853 22.860952 489.530137 30.426754L230.842287 413.950336C199.327593 464.066663 182.887617 520.83862 182.887617 578.83362 182.887617 753.728793 330.534526 896 512.028443 896 693.493917 896 841.140826 753.728793 841.140826 578.83362 841.140826 520.923949 824.786179 464.265763 793.840342 414.917393L535.03872 30.455197ZM512.028443 461.108605C441.461697 461.108605 384.063996 518.392534 384.063996 588.817066 384.063996 659.213155 441.461697 716.525526 512.028443 716.525526 582.595189 716.525526 639.964446 659.213155 639.964446 588.817066 639.964446 518.392534 582.595189 461.108605 512.028443 461.108605Z"  horiz-adv-x="1024" />

    
    <glyph glyph-name="yonghuliebiao" unicode="&#58929;" d="M921.698544 346.951199l-566.082756 0c-20.748556 0-37.539988 16.790408-37.539988 37.539988 0 20.733207 16.791431 37.542035 37.539988 37.542035l566.082756 0c20.756743 0 37.546128-16.807804 37.546128-37.542035C959.244672 363.741607 942.455287 346.951199 921.698544 346.951199L921.698544 346.951199zM921.698544 647.275195l-566.082756 0c-20.748556 0-37.539988 16.808828-37.539988 37.541011 0 20.73116 16.791431 37.539988 37.539988 37.539988l566.082756 0c20.756743 0 37.546128-16.808828 37.546128-37.539988C959.244672 664.084023 942.455287 647.275195 921.698544 647.275195L921.698544 647.275195zM136.509559 9.092331c-41.464367 0-75.086116 33.616632-75.086116 75.075883 0 41.46539 33.621748 75.079976 75.086116 75.079976 41.460274 0 75.080999-33.615609 75.080999-75.079976C211.590558 42.70794 177.969832 9.092331 136.509559 9.092331L136.509559 9.092331zM136.509559 309.411211c-41.464367 0-75.086116 33.621748-75.086116 75.078952 0 41.467437 33.621748 75.083046 75.086116 75.083046 41.460274 0 75.080999-33.615609 75.080999-75.083046C211.590558 343.033983 177.969832 309.411211 136.509559 309.411211L136.509559 309.411211zM136.509559 609.736231c-41.464367 0-75.086116 33.615609-75.086116 75.079976 0 41.46539 33.621748 75.082022 75.086116 75.082022 41.460274 0 75.080999-33.615609 75.080999-75.082022C211.590558 643.350816 177.969832 609.736231 136.509559 609.736231L136.509559 609.736231zM355.615788 121.713318l566.082756 0c20.756743 0 37.546128-16.791431 37.546128-37.541011s-16.789385-37.541011-37.546128-37.541011l-566.082756 0c-20.748556 0-37.539988 16.791431-37.539988 37.541011S334.866209 121.713318 355.615788 121.713318L355.615788 121.713318zM355.615788 121.713318"  horiz-adv-x="1024" />

    
    <glyph glyph-name="gengduo" unicode="&#58915;" d="M352.37-57.729l355.436 430.296c4.414 6.982 4.414 15.882 0 22.864L352.372 825.733c-6.314 9.989-19.529 12.971-29.521 6.657-9.991-6.313-12.97-19.53-6.658-29.52l348.21-418.87L316.192-34.867c-6.314-9.991-3.334-23.206 6.657-29.52 3.548-2.242 7.503-3.312 11.411-3.312C341.356-67.699 348.297-64.171 352.37-57.729z"  horiz-adv-x="1024" />

    
    <glyph glyph-name="xiahang" unicode="&#59142;" d="M512.001 769.038l385.054-385.037h-240.662v-385.037h-288.788v385.038h-240.658l385.056 385.036z"  horiz-adv-x="1024" />

    
    <glyph glyph-name="map" unicode="&#58922;" d="M806.4 531.2c0 160-128 288-288 288h-12.8c-160 0-288-128-288-288 0-83.2 25.6-147.2 96-211.2-25.6 19.2 121.6-128 153.6-230.4 0 0 25.6-102.4 25.6-121.6 0-12.8 6.4-19.2 19.2-19.2s19.2 6.4 19.2 19.2c0 25.6 25.6 121.6 25.6 121.6 32 102.4 179.2 249.6 153.6 224 70.4 64 96 134.4 96 217.6z"  horiz-adv-x="1024" />

    
    <glyph glyph-name="icon-test" unicode="&#58902;" d="M693.039 788.162c-50.946 27.933-86.204 39.139-120.971 43.129-49.744 7.215-94.131 8.090-135.675-3.662-245.659-69.368-341.211-268.945-221.169-487.929 58.381-106.595 262.823-377.344 296.769-405.167 25.090 19.57 248.775 301.58 316.502 439.114 84.347 171.371-11.533 346.568-135.456 414.515zM511.993 220.262c-156.229 0-282.885 126.656-282.885 282.885 0 156.228 126.656 282.885 282.885 282.885s282.885-126.657 282.885-282.885c0-156.229-126.656-282.885-282.885-282.885zM511.993 750.499c-136.604 0-247.354-110.748-247.354-247.354s110.748-247.354 247.354-247.354 247.354 110.748 247.354 247.354-110.748 247.354-247.354 247.354z"  horiz-adv-x="1024" />

    
    <glyph glyph-name="map_pin" unicode="&#59200;" d="M764.037 720.431C697.193 787.892 607.691 825.046 512.013 825.046c-94.937 0-184.416-37.128-251.982-104.574-67.381-67.501-104.49-156.98-104.49-251.953 0-95.19 36.813-184.349 103.676-251.144L463.97-34.203c11.815-14.517 29.326-22.843 48.043-22.843s36.228 8.326 48.042 22.843L764.84 217.413c66.88 67.378 103.701 156.524 103.701 251.105 0 95.683-37.116 185.145-104.504 251.913z"  horiz-adv-x="1024" />

    
    <glyph glyph-name="cemian" unicode="&#58971;" d="M613.989347 550.892031l-76.782757 76.783781-38.392402-38.416962 76.80834-76.782757 38.366819 38.415938z m95.992261 57.576323l-95.992261 95.991238-38.366819-38.415938 95.991238-95.942119 38.367842 38.366819zM460.423833 397.277398l-76.783781 76.831876-38.415938-38.415938 76.807317-76.782757 38.392402 38.366819z m95.991238 57.623395l-95.991238 95.991238-38.392402-38.415938 95.967702-95.991238 38.415938 38.415938z m400.87611-424.922782l-76.539211 242.519476c-7.281847 23.069415-28.103058 38.074154-52.834322 38.074153H715.601606v-26.930349h64.6136c21.701255 0 39.97955-12.707416 46.3834-32.208562l39.539528-178.297802c9.580193-29.324886-13.733792-58.991556-46.382376-58.991556H204.609563c-32.648584 0-55.962569 29.66667-46.358841 58.991556l39.515992 178.297802c0.073678 0.243547 0.170892 0.440022 0.24457 0.683568l1.783623 4.448312c0.024559 0.049119 0.024559 0.098237 0.049119 0.098238h-0.880044v18.110473l203.858968-203.837479c10.606569-10.605545 27.785833-10.605545 38.392402 0L901.963061 531.684574c10.606569 10.605545 10.606569 27.810393 0 38.415938L671.613766 800.449807c-10.654664 10.606569-27.810393 10.606569-38.415938 0L172.449096 339.702098c-9.688663-9.689686-10.520611-24.880667-2.508124-35.523051-12.374842-6.484691-21.890566-17.554818-26.328645-31.632442L67.097676 29.978011c-5.351891-16.910135-2.419096-33.625842 8.357341-47.849798 10.777461-14.271028 26.294876-21.895683 44.452422-21.895683h784.548396c18.182105 0 33.67496 7.624654 44.476981 21.895683 10.753925 14.223956 13.685697 30.939663 8.358365 47.849798z m-708.058305 309.724087l19.208481 19.208481 364.757494 364.757494c10.605545 10.605545 27.761274 10.605545 38.415938 0l153.566538-153.566538c10.605545-10.605545 10.605545-27.810393 0-38.415938l-383.964952-383.964952c-10.606569-10.605545-27.785833-10.605545-38.392402 0L249.232876 301.285137c-10.606569 10.606569-10.606569 27.810393 0 38.416961z m153.590074-38.416961l-95.991238 95.992261-38.391379-38.366819 95.991238-95.992262 38.391379 38.36682z"  horiz-adv-x="1024" />

    
    <glyph glyph-name="map1" unicode="&#58882;" d="M763.045161 156.077419c-19.819355 6.606452-33.032258-6.606452-39.638709-26.425806-6.606452-19.819355 6.606452-33.032258 26.425806-39.63871 99.096774-19.819355 151.948387-46.245161 151.948387-66.064516 0-6.606452-6.606452-6.606452-19.819355-19.819355-19.819355-13.212903-46.245161-26.425806-79.277419-33.032258-79.277419-19.819355-178.374194-33.032258-290.683871-33.032258-112.309677 0-211.406452 13.212903-290.683871 33.032258-33.032258 13.212903-59.458065 19.819355-79.277419 33.032258l-19.819355 19.819355c0 13.212903 52.851613 39.63871 138.735484 59.458065 19.819355 6.606452 33.032258 19.819355 26.425806 39.638709 0 19.819355-19.819355 33.032258-39.63871 26.425807-118.916129-26.425806-191.587097-66.064516-191.587096-125.522581 0-92.490323 204.8-151.948387 455.845161-151.948387s455.845161 59.458065 455.845161 151.948387c0 66.064516-79.277419 105.703226-204.8 132.129032zM254.348387 420.335484l231.225807-369.96129c6.606452-6.606452 13.212903-13.212903 26.425806-13.212904s19.819355 6.606452 26.425806 19.819355l231.225807 369.96129c33.032258 46.245161 52.851613 105.703226 52.851613 165.161291C815.896774 757.264516 677.16129 896 512 896S208.103226 757.264516 208.103226 585.496774c0-59.458065 19.819355-118.916129 46.245161-165.16129z m257.651613 310.503226c79.277419 0 138.735484-66.064516 138.735484-138.735484 0-79.277419-59.458065-138.735484-138.735484-138.735484-79.277419 0-138.735484 66.064516-138.735484 138.735484s59.458065 138.735484 138.735484 138.735484z"  horiz-adv-x="1024" />

    
    <glyph glyph-name="tianjia" unicode="&#58895;" d="M563.501899 331.980283h360.380768c28.465131 0 51.502545 23.103354 51.502545 51.502545 0 28.466424-23.037414 51.502545-51.502545 51.502546H563.501899V795.366141c0 28.465131-23.036121 51.502545-51.502545 51.502546-28.465131 0-51.501253-23.037414-51.501253-51.502546v-360.380767H100.11604C71.650909 434.985374 48.614788 411.94796 48.614788 383.482828c0-28.465131 23.036121-51.502545 51.501252-51.502545h360.380768v-360.380768c0-28.465131 23.037414-51.501253 51.501253-51.501252 28.466424 0 51.502545 23.036121 51.502545 51.501252V331.980283h0.001293z"  horiz-adv-x="1024" />

    
    <glyph glyph-name="guanbi" unicode="&#58990;" d="M850.56 113.344L579.904 384l270.656 270.656a48.832 48.832 0 0 1 0.96 68.736 48.704 48.704 0 0 1-68.864-0.896l-270.72-270.592L241.344 722.56c-19.264 19.136-49.984 19.648-68.736 0.896s-18.368-49.664 0.832-68.8L444.096 384 173.44 113.344c-19.264-19.264-19.648-49.984-0.896-68.736s49.472-18.368 68.736 0.896l270.656 270.592 270.656-270.592a48.704 48.704 0 0 1 68.864-0.96 48.704 48.704 0 0 1-0.896 68.8z"  horiz-adv-x="1024" />

    
    <glyph glyph-name="guanbishuru" unicode="&#59048;" d="M511.999488 893.606487c-281.464463 0-509.606487-228.177839-509.606486-509.606487 0-281.46344 228.142024-509.606487 509.606486-509.606487 281.46344 0 509.606487 228.143047 509.606487 509.606487 0 281.428647-228.143047 509.606487-509.606487 509.606487z m205.392904-646.819569c18.839067-18.839067 18.839067-49.339732 0-68.179822-18.84009-18.839067-49.340755-18.839067-68.179822 0l-136.309502 136.324852-136.339178-136.324852c-18.768459-18.839067-49.339732-18.839067-68.108191 0-18.84009 18.84009-18.84009 49.340755 0 68.179822l136.292106 136.306433L308.455699 519.400806c-18.84009 18.84009-18.84009 49.339732 0 68.179822 18.768459 18.804275 49.339732 18.804275 68.108191 0l136.339178-136.324851 136.309502 136.324851c18.839067 18.804275 49.339732 18.804275 68.179822 0 18.839067-18.84009 18.839067-49.339732 0-68.179822L581.071633 383.093351l136.320759-136.306433z"  horiz-adv-x="1024" />

    
    <glyph glyph-name="danxuan" unicode="&#59049;" d="M172.26183 893.606487h679.475316c93.809549 0 169.868829-76.05928 169.868829-169.868829v-679.475316c0-93.809549-76.05928-169.868829-169.868829-169.868829h-679.475316c-93.809549 0-169.868829 76.05928-169.868828 169.868829v679.475316c0 93.809549 76.060303 169.868829 169.868828 169.868829z"  horiz-adv-x="1024" />

    
    <glyph glyph-name="xuanzhong" unicode="&#59050;" d="M172.26183 893.606487h679.475316c93.809549 0 169.868829-76.05928 169.868829-169.868829v-679.475316c0-93.809549-76.05928-169.868829-169.868829-169.868829h-679.475316c-93.809549 0-169.868829 76.05928-169.868828 169.868829v679.475316c0 93.809549 76.060303 169.868829 169.868828 169.868829zM896.931464 567.390797c-96.712669-84.623329-182.733834-178.23845-265.559214-275.549753l-48.855708-58.547441c-35.667338-42.960441-71.034846-86.319971-106.602923-129.881093-21.580504-26.375717-54.850236-36.667108-83.923388-15.585976-72.933079 52.851719-144.169517 164.750251-238.98293 166.249395-75.331709 1.198292-63.941288 123.886565 10.990309 122.689296 101.208053-1.599428 167.248142-77.929884 240.581333-141.472082l8.19259-7.093558 6.393617 7.693216c55.449893 76.829829 114.696252 151.062508 177.339988 221.798548l34.867112 38.764886c57.247842 62.343907 117.193119 121.789811 179.63731 177.739077 65.441455 58.644655 151.762449-49.157583 85.921904-106.804515z"  horiz-adv-x="1024" />

    
    <glyph glyph-name="mima" unicode="&#59051;" d="M822.541197 485.896738H356.729146V656.034696c0 56.04955 69.175499 119.065769 155.270342 119.06577 86.033445 0 155.270343-62.395072 155.270343-119.06577v-51.01079h0.621147c3.919263-28.615735 29.114085-50.948369 59.533908-50.948369s55.613622 22.332634 59.532885 50.948369h0.62217V656.034696c0 131.196041-123.544781 237.57179-276.266068 237.571791-152.035672 0-275.580452-106.375749-275.580452-237.571791v-170.137958H201.458803c-56.920384 0-103.513562-45.847188-103.513562-101.896738v-407.710772c0-56.048527 46.593178-101.895715 103.513562-101.895715h621.083417c56.920384 0 103.513562 45.847188 103.513562 101.895715V384c-0.001023 56.04955-46.594201 101.896738-103.514585 101.896738zM563.756269 109.477646v-46.531779c0-29.300326-23.328311-52.877301-51.756781-52.877301-28.490891 0-51.756781 23.576975-51.756781 52.877301v46.531779c-40.746006 18.475793-69.236897 59.2218-69.236897 105.690134 0 65.007573 54.369282 117.262704 120.993678 117.262704s120.93228-52.877301 120.93228-117.262704c0-46.468334-28.428469-86.593194-69.175499-105.690134z"  horiz-adv-x="1024" />

    
    <glyph glyph-name="yonghu" unicode="&#59052;" d="M956.854229 17.920394c0-116.475781-228.848105-143.526881-443.765943-143.526881-213.860762 0-445.942515 27.051099-445.942515 143.526881v32.212656c0 85.320201 157.954475 172.693154 292.278763 220.514299 9.700943 3.109828 55.906288 28.109198 30.098505 94.64866-66.602907 66.572208-117.098975 174.714184-117.098975 280.805454C272.424064 808.347684 381.997646 893.605463 510.911714 893.605463c128.975467 0 239.668545-85.257779 239.668545-247.504 0-106.09127-50.496068-213.208916-117.15935-279.748378-25.745361-75.930343 15.048741-93.591585 21.516036-95.705736 141.847635-45.769416 299.803133-132.084271 299.803133-220.514299v-32.212656h2.114151z"  horiz-adv-x="1024" />

    
    <glyph glyph-name="sousuo" unicode="&#59053;" d="M1002.183624-11.97345L795.963888 194.246285c53.622268 72.843028 85.342714 162.748664 85.342714 259.924891 0 242.306628-197.185988 439.436334-439.491593 439.436334-242.361887 0-439.490569-197.129706-439.490569-439.436334 0-242.305605 197.129706-439.436334 439.490569-439.436334 97.192599 0 187.122795 31.723515 259.984243 85.351923l206.269877-206.173686c12.994965-12.993942 30.02585-19.519566 47.057759-19.519566 17.086144 0 34.117029 6.525624 47.055712 19.519566 25.988908 25.989931 25.988908 68.125587 0.001024 94.113471zM110.482789 454.170153c0 182.670389 148.635225 331.276962 331.33222 331.276962 182.698019 0 331.333244-148.607596 331.333244-331.276962 0-182.641737-148.635225-331.221704-331.333244-331.221704-182.696995 0.001023-331.332221 148.579967-331.33222 331.221704z"  horiz-adv-x="1024" />

    
    <glyph glyph-name="dengluyonghu" unicode="&#59054;" d="M511.271918 628.007363c-87.971587 0-159.557996-63.279209-159.557996-140.991128 0-77.827553 71.586408-141.030014 159.557996-141.030014 88.010473 0 159.520133 63.24237 159.520133 141.030014 0 77.711919-71.50966 140.991128-159.520133 140.991128z m510.334057-244.007363c0 281.447067-228.15942 509.606487-509.606487 509.606487s-509.606487-228.15942-509.606486-509.606487 228.15942-509.606487 509.606486-509.606487c113.480564 0 218.291678 37.099966 302.983569 99.821473-0.187265 0.098237-0.369414 0.184195-0.557701 0.284479-39.58353 114.768907-158.486594 198.491727-300.282041 198.491727-142.647861 0-262.114766-84.811618-300.933887-200.656019 1.834788-1.677199 2.026146-2.022053-0.151449-0.437975 0.049119 0.147356 0.102331 0.291642 0.151449 0.437975-9.517771 8.699126-63.508429 53.462632-63.508429 53.462632C208.693578 153.429671 349.570095 243.314841 514.143315 243.314841c163.42507 0 302.540478-89.044012 362.260627-215.142966 0 0-0.023536-0.170892-0.073678-0.48607 89.87596 91.88471 145.275711 217.629599 145.275711 356.314195zM511.271918 276.390143c-131.34442 0-238.226706 94.478791-238.226707 210.626092 0 116.146277 106.883309 210.588229 238.226707 210.588229 131.422192 0 238.265592-94.440929 238.265592-210.588229s-106.8434-210.626092-238.265592-210.626092z"  horiz-adv-x="1024" />

    
    <glyph glyph-name="dingwei" unicode="&#59055;" d="M949.048449 456.801073C916.766209 645.684978 765.116323 793.816736 574.478472 820.806437h10.322089V893.606487H439.198415v-72.801073h9.769505C258.368954 793.816736 106.677113 645.684978 74.384639 456.801073H2.393002v-145.602146H73.565994c29.945009-187.958836 177.9816-336.617597 365.631398-367.484605v-69.320809H584.799538v69.408813c187.42467 31.066553 335.159386 179.62196 365.066533 367.396601h71.738881V456.801073h-72.556503z m-77.523631-131.027196c-24.100908-156.834978-148.303674-280.611026-305.350476-304.213583L511.715009 130.476913l-54.458309-108.917642C300.279483 45.092243 176.077739 168.938899 151.975808 325.702246l111.548562 55.809073-111.548562 55.810097c24.030299 156.479891 147.734716 280.112676 304.285215 304.000736l55.452963-110.90695 55.453986 110.90695c156.549475-23.958668 280.254915-147.592476 304.355823-304.071344L760.046864 381.512343l111.477954-55.738466zM511.999488 529.602146c-80.408331 0-145.602146-65.193815-145.602145-145.602146 0-80.407308 65.193815-145.601122 145.602145-145.601122 80.407308 0 145.601122 65.193815 145.601123 145.601122 0.001023 80.408331-65.192791 145.602146-145.601123 145.602146z"  horiz-adv-x="1024" />

    
    <glyph glyph-name="fangda" unicode="&#59056;" d="M936.671561 468.934414h-339.737658v339.737658c0 46.946218-38.071084 84.934414-84.934415 84.934415-46.946218 0-84.934414-37.988196-84.934414-84.934415v-339.737658h-339.737658c-46.946218 0-84.934414-37.988196-84.934414-84.934414 0-46.863331 37.988196-84.934414 84.934414-84.934414h339.737658v-339.737658c0-46.863331 37.988196-84.934414 84.934414-84.934415 46.863331 0 84.934414 38.071084 84.934415 84.934415v339.737658h339.737658c46.863331 0 84.934414 38.071084 84.934414 84.934414 0 46.946218-38.071084 84.934414-84.934414 84.934414z"  horiz-adv-x="1024" />

    
    <glyph glyph-name="daohang" unicode="&#59057;" d="M602.094436-125.606487l-170.988326 428.693666L2.413468 474.033549 1021.586532 893.606487l-419.492096-1019.212974z"  horiz-adv-x="1024" />

    
    <glyph glyph-name="jingweiduchaxun" unicode="&#59058;" d="M1021.605975 384.426719c0 281.178961-228.143047 509.179768-509.606487 509.179768-281.464463 0-509.606487-228.000807-509.606486-509.179768 0-259.779581 194.657398-474.130508 446.189131-505.269715 14.219863-2.986007 31.423687-4.76349 52.04126-4.763491 5.758144 0 11.375072 0.284479 16.706497 0.853438 278.976806 2.843768 504.276085 229.706659 504.276085 509.179768z m-72.872704-7.252171c-1.493004 25.452695-4.834098 50.335409-9.9537 74.507947 0.497327 8.602935 0.568958 16.778128 0.356111 24.385387 6.328126-29.574572 9.668197-60.217477 9.668197-91.641163 0.001023-2.417049 0.001023-4.834098-0.070608-7.252171z m-873.539197 7.252171c0 30.854728 3.199878 60.999282 9.314133 90.00592 18.84009-20.190855 63.3447-19.693528 74.151837 10.451026 19.409049-11.588943 45.500287-13.649881 45.500287-36.756135 0-76.284407 2.702552-158.043503 72.019267-159.322636 1.919722 0 38.60525-13.863752 56.093553-59.221799 6.042623-15.641235 29.930683 0 56.092529 0 13.081946 0 0-21.968337 0-69.602218 0-47.490617 102.30606-120.576169 102.306061-120.576169-0.426719-31.353079 0.853437-56.80475 3.412726-77.067237-23.035646 0.426719-42.515303-2.629897-57.799404-7.821129C231.103983-9.650545 75.194074 169.151747 75.194074 384.426719z m544.300661-423.15451c-2.204202 11.090593-12.157901 17.204847-30.215163 12.441357 14.432711 61.424978 21.399379 95.834672 51.543934 121.926934 43.580564 37.751812 5.189186 79.767741-27.941376 74.791403-26.161846-3.910053-9.668197 32.347732-32.916691 34.339086-23.38971 1.990331-53.818743 48.344055-87.374999 64.340377-17.773805 8.389064-35.263132 31.068599-62.705134 32.064277-24.314779 0.924045-59.861366-20.546965-59.861366-3.981685 0 53.392024-5.403057 91.498924-6.541997 106.712417-0.852414 12.228509-7.962346 4.123924 24.882714 3.342119 17.916045-0.497327 9.171893 35.902698 26.874067 37.325093 17.417695 1.422396 58.866712-16.280802 69.38937-9.242501 9.810437 6.540973 72.161506-163.517167 72.161507-28.082592 0 16.066931-8.389064 44.007283 0 59.221799 32.846082 60.145845 63.700811 109.13049 60.927651 116.311029-1.563612 4.052293-33.69952 7.322779-59.364039-1.279132-8.674567-2.915399 2.772136-16.423041-9.669221-19.337418-46.63718-10.806113-87.872327 12.583596-73.440639 34.481326 14.787798 22.537296 68.322062 9.810437 73.014944 54.956659 2.701528 25.807782 4.904707 55.738465 6.39771 77.990259 62.777789-9.810437 55.880705 81.474616-37.46631 91.214445 188.899254-2.204202 348.861456-124.131135 407.585929-293.40747-2.986007 2.772136-6.398734 4.40738-10.380418 4.76349-28.223808 70.52524-96.759741 19.479657-73.511247-42.657542-124.487246-95.693456-92.63684-162.450882-51.756781-200.700021 21.541619-20.120246 42.087561-50.334385 55.452963-72.019267-14.573927-42.37204 53.605895-25.381064 87.162152 46.567595-42.72815-148.234089-161.953555-264.047792-312.24756-302.082037z"  horiz-adv-x="1024" />

    
    <glyph glyph-name="suoxiao" unicode="&#59059;" d="M87.327416 468.934414h849.344145c46.863331 0 84.934414-37.988196 84.934414-84.934414 0-46.863331-38.071084-84.934414-84.934414-84.934414h-849.344145c-46.946218 0-84.934414 38.071084-84.934414 84.934414 0 46.946218 37.988196 84.934414 84.934414 84.934414z"  horiz-adv-x="1024" />

    
    <glyph glyph-name="xialajiao" unicode="&#59060;" d="M1021.605975 893.606487v-1019.212974h-1019.212973l1019.212973 1019.212974z"  horiz-adv-x="1024" />

    
    <glyph glyph-name="jibenxinxi" unicode="&#59061;" d="M847.645968 722.02362H176.354032v-81.673138H847.645968v81.673138zM429.71953 553.868829H176.354032v-81.727373h253.365498v81.727373zM176.354032 302.300256h165.998685v81.699744H176.354032v-81.699744z m676.269297-42.577724c0 117.255541-94.66708 212.308407-211.451899 212.308407s-211.4519-95.052866-211.4519-212.308407c0-117.282147 94.66708-212.336036 211.4519-212.336036 44.01547 0 84.879156 13.519921 118.720915 36.633339l197.958584-198.733227 58.337663 58.558697-198.401676 199.147666c22.0062 33.481556 34.836413 73.598228 34.836413 116.729561z m-211.451899-127.401622c-70.004377 0-126.904295 57.148581-126.904295 127.401622 0 70.225411 56.899918 127.375016 126.904295 127.375016 69.949118 0 126.849036-57.149605 126.849036-127.375016 0-70.25304-56.899918-127.401622-126.849036-127.401622zM906.259924 893.606487h-788.518824c-63.700811 0-115.348098-51.839669-115.348098-115.789143v-787.633665c0-63.949474 51.647287-115.789143 115.348098-115.789142h301.915237v84.934414H117.7411c-16.97665 0-30.745235 13.851473-30.745235 30.854728V777.817344c0 17.003256 13.768585 30.854728 30.745235 30.854728h788.518824c16.920368 0 30.744211-13.851473 30.744211-30.854728V468.851527h84.602863V777.817344c-0.001023 63.949474-51.646264 115.789143-115.347074 115.789143z"  horiz-adv-x="1024" />

    
    <glyph glyph-name="shangchuan" unicode="&#59062;" d="M985.751373 250.192481c-21.648043-39.998993-51.009767-71.227228-87.151919-92.75145-35.95591-21.399379-76.949556-32.284287-121.988332-32.284287-10.201339 0-20.777209 0.589424-31.352056 1.772366-23.141046 2.642177-39.875173 23.731494-37.325093 47.057759 2.302439 21.617343 20.529569 37.916565 42.301431 37.916564 1.36816 0 2.798742-0.062422 4.167927-0.217964 7.837502-0.871857 15.489786-1.306762 22.829961-1.306762 79.002308 0 118.069069 50.575886 134.428665 80.744999 38.133505 70.511937 33.218566 165.688623-11.446703 221.394343-24.944112 31.072693-59.718103 46.811142-103.325273 46.811142-21.275559 0-44.664246-3.825119-69.547983-11.352559-3.731998-1.181919-7.962346-1.804089-12.192693-1.804089-23.264866 0-42.176588 19.128663-42.176589 42.642193 0 1.834788 0.124843 3.670599 0.373507 5.505387 8.086166 65.939805-29.860075 102.609982-63.07864 121.738645-32.098046 18.475793-72.78163 28.614711-114.585735 28.614711-53.311183 0-104.507192-16.174378-140.587946-44.35316-56.421011-44.229341-73.4038-115.176183-49.143257-205.127867 0.995677-3.452635 1.493004-7.340175 1.493004-11.197017 0-23.514553-18.910699-42.643216-42.176588-42.643216a45.557592 45.557592 0 0 0-5.474688 0.341784c-9.828856 1.24434-19.59529 1.866511-28.988218 1.866511-55.861262 0-100.401688-21.771863-125.534088-61.305251-23.38971-36.889165-24.882714-82.890872-3.794419-117.135814 22.332634-36.235272 65.441455-55.426357 124.724652-55.426357 10.948353 0 22.518876 0.683569 34.400485 2.02103a36.56887 36.56887 0 0 0 4.665253 0.281409c23.264866 0 42.237987-19.128663 42.237986-42.643216 0-21.679765-16.111956-39.906895-37.386492-42.36283a361.143177 361.143177 0 0 0-42.550095-2.520403c-89.578178 0-159.809729 33.964556-197.693547 95.643314C-8.321014 282.102239-6.579347 363.780493 34.290479 428.195571c37.386492 58.972113 102.33062 95.082542 179.217754 99.966783-17.044188 133.464711 48.64593 207.148897 89.951685 239.496629 50.512441 39.564088 120.556727 62.237483 192.343703 62.237483 57.043181 0 111.101377-13.748119 156.263973-39.750329 58.84727-33.840736 95.797833-86.343507 104.694457-148.425448 13.871939 1.990331 27.495214 2.986007 40.558742 2.986008 39.751353 0 76.017324-9.081843 107.866706-26.967188 23.203468-13.031804 43.60717-30.388101 60.652382-51.569516 66.007343-82.328054 74.404594-215.233016 19.911492-315.977512zM481.128387 510.186957c8.958022 6.998391 19.532869 10.667967 30.792307 10.667967 11.135618 0 22.022573-3.794419 30.668487-10.637268l126.155234-101.894691c11.571546-9.455349 18.164708-23.482831 18.164709-38.47529 0-11.259438-3.794419-22.270213-10.762112-30.946826-8.895601-11.290137-23.327288-18.010189-38.505989-18.010189-11.072173 0-21.771863 3.6399-30.108738 10.295484l-46.779419 37.82242v-381.515157c0-27.247574-21.896706-49.392944-48.894594-49.392943-26.874067 0-48.833195 22.145369-48.833195 49.392943V369.008564l-46.716998-37.790698c-8.335852-6.687306-19.035542-10.388605-30.169113-10.388604-15.241123 0-29.611411 6.749728-38.505989 18.071587-6.90527 8.708336-10.69969 19.687388-10.69969 30.916127 0 14.991436 6.594185 29.05064 18.289552 38.537712l125.905548 101.832269z"  horiz-adv-x="1024" />

    
    <glyph glyph-name="shuikuwenti" unicode="&#59063;" d="M906.259924 893.606487h-788.518824c-3.981684 0-7.915273-0.202615-11.792581-0.597611C47.785841 887.07984 2.393002 837.769784 2.393002 777.817344v-787.633665c0-63.949474 51.647287-115.789143 115.348098-115.789142h788.518824c63.700811 0 115.347075 51.839669 115.347074 115.789142V777.817344c-0.001023 63.949474-51.646264 115.789143-115.347074 115.789143z m30.744211-903.423831c0-17.031908-13.823843-30.854728-30.744211-30.854728h-788.518824c-16.97665 0-30.745235 13.851473-30.745235 30.854728V777.788691c0 15.96767 12.101619 29.139667 27.602661 30.722722a30.667463 30.667463 0 0 0 3.142574 0.159636h788.518824c16.920368 0 30.744211-13.851473 30.744211-30.854728v-787.633665zM499.502873 173.156968c-43.185568 0-69.838601-32.625048-69.838601-62.899563 0-31.712259 25.823132-65.995063 67.405179-65.995063 32.680307 0 67.571978 17.362436 67.571978 65.995063 0.165776 18.302855-5.862521 33.757848-17.695011 45.093011-11.943007 11.30958-29.195949 17.806551-47.443545 17.806552z m4.756327 550.58069c-58.171887 0-217.810724-34.476209-218.751142-145.17952 0-29.91431 32.625048-34.006512 46.668902-34.366716 16.533558 0 31.629371 10.561543 54.742788 27.702946 28.090778 20.874423 63.037708 46.781466 114.905007 46.781466 50.595328 0 109.485577-47.942919 109.485577-109.845781 0.718361-73.65451-53.91391-101.19168-97.874122-123.226532-44.790112-22.505573-70.115917-37.269835-70.115917-79.046311 0-3.041266 0.663102-73.846892 54.190203-73.846892 26.653033 0 44.236504 20.044522 70.888513 52.66957 16.257266 20.072151 33.177634 40.642652 55.738466 56.760749 2.820232 2.433422 10.561543 7.631818 20.017916 13.796214 20.902052 13.519921 55.848982 36.108383 66.465784 57.866942l6.358825 13.354146c16.920368 35.582403 21.51092 45.204551 21.510919 92.538603-0.496304 150.376892-121.373325 204.041116-234.231719 204.041116z"  horiz-adv-x="1024" />

    
    <glyph glyph-name="zuo" unicode="&#59064;" d="M505.872954 299.66729V468.374666l270.977621 277.115412c32.43062 32.92897 32.43062 86.34453 0 119.2735-16.174378 16.505929-37.407981 24.716938-58.641585 24.716938s-42.384319-8.211009-58.558697-24.716938L247.087003 443.657728c-32.347732-32.92897-32.347732-86.34453 0-119.273501l412.56329-421.10585c32.347732-33.011858 84.851527-33.011858 117.199259 0 32.43062 32.92897 32.43062 86.261643 0 119.190613L505.872954 299.66729z"  horiz-adv-x="1024" />

    
    <glyph glyph-name="youdi" unicode="&#59065;" d="M73.237513 26.594961c-32.43062-32.92897-32.43062-86.261643 0-119.190613 32.347732-33.011858 84.851527-33.011858 117.199259 0l412.56329 421.10585c32.346709 32.929993 32.346709 86.345554 0 119.274524L190.438818 868.889549c-16.175401 16.505929-37.326117 24.716938-58.55972 24.716938s-42.467207-8.211009-58.641585-24.716938c-32.43062-32.92897-32.43062-86.34453 0-119.273501l270.977621-277.115411v-168.707377L73.237513 26.594961zM805.2156 808.672072v-849.344144c0-46.863331 38.071084-84.934414 84.934414-84.934415 46.946218 0 84.934414 38.071084 84.934415 84.934415v849.344144c0 46.946218-37.988196 84.934414-84.934415 84.934415-46.862307 0-84.934414-37.988196-84.934414-84.934415z"  horiz-adv-x="1024" />

    
    <glyph glyph-name="zuodi" unicode="&#59066;" d="M679.784866 303.79326V472.500637L950.762487 749.616048c32.43062 32.92897 32.43062 86.34453 0 119.273501-16.174378 16.505929-37.407981 24.716938-58.641585 24.716938s-42.384319-8.211009-58.558697-24.716938L420.999938 447.783699c-32.347732-32.92897-32.347732-86.34453 0-119.273501L833.563228-92.595652c32.347732-33.011858 84.851527-33.011858 117.199259 0 32.43062 32.92897 32.43062 86.261643 0 119.190613L679.784866 303.79326zM133.848962 893.606487c-46.946218 0-84.934414-37.988196-84.934414-84.934415v-849.344144c0-46.863331 37.988196-84.934414 84.934414-84.934415 46.863331 0 84.934414 38.071084 84.934415 84.934415v849.344144c0 46.946218-38.071084 84.934414-84.934415 84.934415z"  horiz-adv-x="1024" />

    
    <glyph glyph-name="you" unicode="&#59067;" d="M518.127046 468.333734v-168.707377L247.149425 22.510946c-32.43062-32.92897-32.43062-86.34453 0-119.273501 16.174378-16.505929 37.407981-24.716938 58.641585-24.716938s42.384319 8.211009 58.558697 24.716938l412.56329 421.10585c32.347732 32.92897 32.347732 86.34453 0 119.273501L364.348684 864.722646c-32.347732 33.011858-84.851527 33.011858-117.199259 0-32.43062-32.92897-32.43062-86.261643 0-119.190613l270.977621-277.198299z"  horiz-adv-x="1024" />

    
    <glyph glyph-name="zhengzhiqingkuang" unicode="&#59068;" d="M847.644945 722.02362H176.326403v-81.673138h671.318542v81.673138zM176.326403 472.141456h253.365498v81.727373H176.326403v-81.727373z m0-169.812547h166.025291v81.672114H176.326403v-81.672114zM906.2589 893.606487H117.71347c-63.700811 0-115.319445-51.812039-115.319445-115.789143v-787.633665c0-63.977104 51.618635-115.789143 115.319445-115.789142h301.941844v84.934414H117.71347c-16.949021 0-30.745235 13.879102-30.745234 30.854728V777.817344c0 16.975627 13.796214 30.854728 30.745234 30.854728h788.54543c16.920368 0 30.745235-13.879102 30.745235-30.854728v-308.937165h84.602863V777.817344c-0.001023 63.977104-51.647287 115.789143-115.348098 115.789143z m66.022693-745.719043c-0.331551 1.382487-0.995677 2.708692-1.879813 3.926426v1.327228l-7.79657 7.740288h-1.382487a11.918447 11.918447 0 0 1-4.313236 2.046613c-2.267647 1.824555-4.810562 2.708692-7.630794 2.708691h-9.511631c-3.981684 0-6.193049-0.663102-8.735965-2.764973-2.599198-0.552585-4.369517-1.769296-6.525624-3.870144l-75.422783-46.946219c-15.870456-9.455349-20.237927-29.141714-10.285251-45.729507l0.221034-0.331551c6.856152-10.285251 17.251919-15.925714 29.085433-15.925714 5.585205 0 12.497639 0 17.473976 4.202718l6.856152 4.313236c-21.344121-72.715115-85.597517-120.877021-162.79062-120.877022-62.816674 0-122.370025 36.274158-151.73175 92.454692l-0.277316 0.443092c-6.469342 10.616802-17.417695 17.251919-28.588105 17.251919-5.087878 0-9.953699-1.382487-14.100136-3.981685-7.078209-2.045589-12.855796-7.078209-15.897062-13.879102-3.78828-8.514931-2.986007-18.744923 2.100847-27.426652 19.381419-38.485523 49.296753-70.834278 86.510306-93.615121 36.938284-22.617114 79.128175-34.56012 121.983216-34.56012 56.17951 0 110.424972 19.851117 152.726403 55.90424 35.555797 30.191626 61.323671 71.000054 73.321936 115.734908l4.755304-8.017604 0.277316-0.497327c6.91141-10.285251 17.196661-15.925714 29.085432-15.925714 5.253654 0 9.344832 0 16.036231 3.372817l1.327229 0.608867 1.049912 1.049912c11.500938 11.335163 18.579147 30.191626 8.626471 46.668903l-44.568055 74.593905z m-442.393689-57.231469c5.059226-4.976338 12.745279-4.976338 16.062837-4.976338 2.654456 0 6.415107 0 12.275582 2.654456a11.739369 11.739369 0 0 1 5.972015 3.64911c2.433422 1.215688 4.14746 2.764973 4.810562 3.372818l64.420195 61.71048 0.109494 0.110517c6.415107 6.358825 9.898441 14.543228 9.898441 23.058159s-3.483334 16.699334-9.898441 23.058158c-6.303566 6.303566-14.598486 9.7869-23.168676 9.786901-8.571213 0-16.699334-3.429099-23.058158-9.621125l-8.128122-7.465019c20.016893 71.884191 88.750323 124.69293 164.83621 124.69293 63.922868 0 122.425284-36.992519 149.132552-94.223988 4.810562-11.612479 16.533558-19.132756 29.915333-19.132756 4.422729 0 8.792247 0.774643 12.939707 2.433422 16.257266 6.469342 23.88806 25.657356 17.030885 42.688242l-0.331551 0.719384c-19.464307 38.651298-49.047066 71.221088-85.597517 94.167706-36.495192 22.782889-78.906118 35.44528-122.812093 36.660968h-2.599198c-57.065693 0-112.083751-20.845771-154.938792-58.668191-35.499515-31.29782-61.350277-73.378218-73.432453-119.218242l-0.553608 0.995677-0.911766 0.884136c-6.55223 6.525624-15.261589 10.174734-24.468274 10.174734-7.521301 0-14.957667-2.433422-20.929682-6.912433l-0.497327-0.38681-0.469698-0.443092c-12.137435-12.109806-13.547551-31.518854-3.23467-45.175898l0.221034-0.277316 59.884902-66.797336 7.520277-7.519254z"  horiz-adv-x="1024" />

    
    <glyph glyph-name="bianji" unicode="&#59069;" d="M803.19457 92.805942c0-80.434937-65.193815-145.597029-145.628752-145.59703H220.773707c-80.403215 0-145.597029 65.163115-145.597029 145.59703V529.597029c0 80.403215 65.193815 145.597029 145.597029 145.597029h145.628752V748.009458H147.991054c-80.434937 0-145.597029-65.193815-145.597029-145.59703v-582.420862c0-80.403215 65.163115-145.597029 145.597029-145.597029h582.359464c80.496335 0 145.628752 65.193815 145.628752 145.597029V238.402971h-72.783677v-145.597029z m201.739701 638.158304L858.994434 877.027903l-0.186242 0.155543C848.046081 887.790014 833.738213 893.606487 818.746778 893.606487c-14.992459 0-29.67281-6.033413-40.24868-16.578584L363.851357 462.226642c-7.153934-7.091512-12.285814-15.956414-14.836917-25.599028l-53.53017-199.625549c-5.194302-19.532869 0.466628-40.528042 14.742772-54.80521l0.187265-0.187266c10.762111-10.574846 24.975834-16.423041 40.030715-16.423041 4.136204 0 8.552793 0.466628 13.063527 1.369184l0.840135 0.187265 200.464661 53.778834c10.638291 2.891863 20.093641 8.709359 27.433815 16.857946l412.687111 412.842653c10.762111 10.69969 16.671705 24.976858 16.671704 40.155559 0 15.2094-5.909593 29.454846-16.671704 40.186257zM553.616328 274.793786a2.199085 2.199085 0 0 0-0.434905-0.995677l-0.497327-0.529049c-0.747014-0.74599-1.680269-1.12052-2.738367-1.120521-1.243317 0-2.238994 0.62217-2.736321 1.15122L401.301294 419.33374c-1.399883 1.399883-1.430582 3.76372 0 5.256724a3.813862 3.813862 0 0 0 1.710968 0.963954c1.24434 0.311085 2.6432-0.062422 3.545756-0.963954l146.127101-146.156778c0.931209-0.933255 1.242294-2.332115 0.931209-3.6399z m-3.670599 81.431637l-65.753563 65.784262L818.621934 756.625696l65.753563-65.785286L549.945729 356.225423z"  horiz-adv-x="1024" />

    
    <glyph glyph-name="luru" unicode="&#59070;" d="M950.659133 567.503361c0.568958-0.568958 1.136893-1.136893 1.706875-1.493004 2.986007 2.275833 5.828752 4.550643 8.531304 7.18054l36.826743 36.970006c5.829775 5.829775 10.594289 12.512988 14.219863 19.48068 17.204847 33.69952 9.597589 78.631872-21.61325 109.700471L866.909707 863.048517C835.911716 894.117117 791.121604 901.866614 757.421061 884.590136a76.975139 76.975139 0 0 1-19.479657-14.148232l-36.826744-36.970006c-2.63092-2.63092-5.119601-5.474688-7.181563-8.460696 0.356111-0.568958 0.924045-1.137916 1.493004-1.705851l255.233032-255.80199z m-95.693456-108.348684c1.919722-1.849114 3.838422-2.986007 4.194532-2.629897l59.932998 60.075237c0.356111 0.356111-0.781806 2.275833-2.701529 4.123924L650.067031 787.473261c-1.848091 1.848091-3.767813 2.986007-4.122901 2.63092l-60.004629-60.07626c-0.356111-0.356111 0.781806-2.275833 2.701528-4.123924l266.324648-266.74932zM635.279233 586.130603L210.341101 160.054555c-2.451842-2.488681-4.158716-4.762467-4.54962-5.901407l57.481156-12.868075c2.842745-1.066285 5.118578-3.625574 5.864568-6.753821 0-0.426719 0.178055-0.853437 0.178055-1.422396l7.571443-49.624211c1.136893 0.568958 3.198855 2.27481 5.296633 4.40738l424.973947 425.863201c3.198855 3.198855 5.332449 6.042623 4.762467 6.611581l-70.171176 70.313416c-0.567935 0.568958-3.411703-1.563612-6.469341-4.54962zM812.877093 408.036439c2.986007 3.056616 5.260817 5.901407 4.834099 6.255471l-56.307424 56.663534c-0.355087 0.356111-3.198855-1.705851-6.255471-4.976338l-424.940178-426.217265c-0.212848-0.212848-9.668197-5.687536-9.846252-5.901406 0 0-163.520237-47.491641-167.678954-47.91836-3.412726-0.14224-20.794605 19.551288-20.794605 19.551288s-16.280802 14.573927-16.280802 17.986654c0 3.554966 52.006468 178.805362 52.006468 178.805362l422.87617 426.431135c3.056616 3.056616 5.332449 5.901407 4.976338 6.256494l-52.753481 52.82409c-0.426719 0.426719-3.269463-1.849114-6.255471-4.90573l-430.484452-431.336866c-0.356111-0.426719-6.042623-6.114255-6.611581-8.317433L8.821411-62.545242c-3.981684-6.255471-6.434549-13.793144-6.434549-21.968338 0-22.679535 18.343787-41.092907 41.022299-41.092907 7.749498 0 14.753005 2.061962 20.973683 5.901407 0.781806-0.213871 2.097778 0 3.590782 0.568958 0 0 292.486494 85.74078 297.214169 89.580225L381.255749-20.882354c-1.706875-6.043646 431.621345 428.918793 431.621344 428.918793z m160.390967-437.024401H456.261023c-26.696012 0-48.309262-21.61325-48.309262-48.345078 0-26.588565 21.61325-48.273447 48.309262-48.273447h517.007037c26.731828 0 48.345078 21.683858 48.345078 48.273447 0 26.731828-21.61325 48.345078-48.345078 48.345078z"  horiz-adv-x="1024" />

    
    <glyph glyph-name="xiangqing" unicode="&#59071;" d="M847.644945 722.02362H176.326403v-81.673138h671.318542v81.673138z m-21.565155-168.154791H176.326403v-81.727373h649.753387v81.727373zM176.326403 302.328909h675.631777v81.672114H176.326403v-81.672114zM906.2589 893.606487H117.71347c-2.986007 0-5.945409-0.113587-8.874111-0.337691C49.287031 888.722246 2.393002 838.79616 2.393002 777.817344v-787.633665c0-63.977104 51.618635-115.789143 115.319445-115.789142h788.54543c63.700811 0 115.348098 51.813063 115.348098 115.789142V777.817344c0 63.977104-51.646264 115.789143-115.347075 115.789143z m30.745235-903.423831c0-17.030885-13.824867-30.854728-30.745235-30.854728H117.71347c-16.949021 0-30.745235 13.879102-30.745234 30.854728V777.762085c0 15.966647 12.126178 29.163203 27.606754 30.750352a30.601972 30.601972 0 0 0 3.13848 0.159635h788.54543c16.920368 0 30.745235-13.879102 30.745235-30.854728v-787.634688zM176.326403 132.46008h335.894119v81.672114H176.326403v-81.672114z"  horiz-adv-x="1024" />

    
    <glyph glyph-name="baocun" unicode="&#59072;" d="M871.738689 893.606487H152.189679c-82.611509 0-149.796678-67.184145-149.796677-149.796678v-719.619618c0-82.575694 67.184145-149.796678 149.796677-149.796678h719.54901c82.611509 0 149.867286 67.219961 149.867286 149.796678v719.619618c0 82.612533-67.254753 149.796678-149.867286 149.796678z m-567.157227-86.095867h415.227979v-271.40434H304.581462V807.51062z m633.417327-783.498484c0-36.364209-29.575596-65.939805-65.905013-65.975621H152.367735c-17.773805 0-34.44551 6.860245-46.886867 19.265786-12.548804 12.548804-19.444864 29.148877-19.444864 46.709835v719.691249c0.071631 36.506449 29.825282 66.224284 66.331731 66.2601h66.152652V527.824663c-0.034792-20.759813 7.998161-40.275285 22.64372-54.95666 14.681374-14.716166 34.161031-22.821775 54.920843-22.821774h431.971316c42.87039 0 77.848019 34.872229 77.848019 77.777411V809.963485h65.976644c36.471656-0.035816 66.11786-29.753651 66.11786-66.224284v-719.727065zM584.090387 750.777501c-23.74582 0-43.084261-19.302625-43.084261-43.047422v-71.983451c0-23.710005 19.337417-43.012629 43.084261-43.01263 23.744797 0 43.083238 19.301602 43.083237 43.01263v71.983451c-0.001023 23.744797-19.338441 43.047422-43.083237 43.047422z"  horiz-adv-x="1024" />

    
    <glyph glyph-name="danxuanzhuangtai" unicode="&#59073;" d="M511.958556 893.648442C230.571864 893.648442 2.393002 665.46958 2.393002 383.959068c0-281.427624 228.177839-509.606487 509.564531-509.606487 281.46958 0 509.648442 228.178863 509.648442 509.606487 0 281.510512-228.177839 509.689375-509.647419 509.689374z m-0.165776-934.36247c-234.523361 0-424.630117 190.106756-424.630116 424.672072S277.269419 808.713005 511.79278 808.713005c234.606249 0 424.714028-190.189643 424.714028-424.754961-0.001023-234.565317-190.107779-424.672072-424.714028-424.672072z"  horiz-adv-x="1024" />

    
    <glyph glyph-name="xuanzhongzhuangtai" unicode="&#59074;" d="M511.958556 893.648442C230.571864 893.648442 2.393002 665.46958 2.393002 383.959068c0-281.427624 228.177839-509.606487 509.564531-509.606487 281.46958 0 509.648442 228.178863 509.648442 509.606487 0 281.510512-228.177839 509.689375-509.647419 509.689374z m-0.165776-934.36247c-234.523361 0-424.630117 190.106756-424.630116 424.672072S277.269419 808.713005 511.79278 808.713005c234.606249 0 424.714028-190.189643 424.714028-424.754961-0.001023-234.565317-190.107779-424.672072-424.714028-424.672072zM511.999488 384m-332.574514 0a332.574514 332.574514 0 1 1 665.149029 0 332.574514 332.574514 0 1 1-665.149029 0Z"  horiz-adv-x="1024" />

    
    <glyph glyph-name="qiyong" unicode="&#59075;" d="M511.963673 893.606487C230.664985 893.606487 2.624269 665.459347 2.624269 383.982604c0-281.44195 228.040716-509.588067 509.339404-509.588067 281.371342 0 509.412059 228.146117 509.412058 509.588067 0 281.476743-228.040716 509.623883-509.412058 509.623883z m0-946.399621c-241.123686 0-436.596659 195.544605-436.59666 436.774714 0 241.265926 195.472973 436.81053 436.59666 436.810531 241.195318 0 436.669314-195.544605 436.669314-436.810531 0-241.23011-195.473997-436.774715-436.669314-436.774714z m194.051601 637.795031l-268.855284-275.504728-114.696252 117.468388c-22.683628 23.252587-59.516512 23.252587-82.270749 0-22.754237-23.216771-22.754237-61.044308 0-84.262102l155.795299-159.670559c11.44875-11.625782 26.309202-17.420765 41.170678-17.420765s29.79356 5.865591 41.10007 17.420765l310.026986 317.671083c22.682605 23.252587 22.682605 60.974723 0 84.297918-22.682605 23.215748-59.516512 23.215748-82.270748 0z"  horiz-adv-x="1024" />

    
    <glyph glyph-name="jinyong" unicode="&#59076;" d="M872.225783 744.359324c-198.961424 198.996217-521.508561 198.996217-720.398354 0-198.961424-199.032032-198.961424-521.686616 0-720.718648 198.889793-198.996217 521.43693-198.996217 720.398354 0 198.889793 199.032032 198.889793 521.686616 0 720.718648z m-51.482535-669.237137c-154.299225-154.36267-395.35128-169.039951-566.153364-44.042075L512.387321 282.824693l0.671289-1.700735 45.047986 46.346561 56.778144 55.4458-2.085498 0.823761 212.424041 218.544435c22.896476 23.50125 19.554358 64.886823-7.396458 92.476181-26.949792 27.482935-67.410296 30.754444-90.236163 7.253195L465.155601 431.961338 156.438447 130.33058C34.49207 300.960749 50.09135 539.665339 203.238332 692.87679c170.517605 170.589236 446.986287 170.589236 617.504916 0 170.517605-170.589236 170.517605-447.165366 0-617.754603z"  horiz-adv-x="1024" />

    
    <glyph glyph-name="yonghutianjia" unicode="&#59077;" d="M730.299353 675.201222H220.888318v-72.813353h509.411035V675.201222zM75.332221 165.612131V675.201222c0 80.421634 65.205071 145.591913 145.556097 145.591912h509.411035c80.351026 0 145.555074-65.170279 145.555074-145.591912v-291.182802h72.742744V748.014574c0 80.421634-65.13344 145.591913-145.555074 145.591913h-654.8955C67.722916 893.606487 2.589476 828.437232 2.589476 748.014574v-655.215796c0-80.421634 65.13344-145.590889 145.556097-145.590889h363.853915v72.777537H220.888318c-80.352049 0-145.556097 65.205071-145.556097 145.626705z m727.708853 72.77856V456.795956H657.556609v-218.405265H439.186136v-145.591913H657.556609v-218.405265h145.485488V92.798778h218.36945V238.390691H803.041074z m-582.152756 72.813353h218.297818v72.813352H220.888318v-72.813352z"  horiz-adv-x="1024" />

    
    <glyph glyph-name="shanchu" unicode="&#59078;" d="M985.039151 675.200198H803.07689v72.813353c0 80.422657-65.13344 145.591913-145.556097 145.591912H366.479207c-80.422657 0-145.556097-65.170279-145.556097-145.591912v-72.813353H38.959825c-20.051685 0-36.335556-16.282848-36.335556-36.406164 0-20.087501 16.283872-36.371372 36.335556-36.371373h946.079326c20.052708 0 36.33658 16.283872 36.33658 36.371373 0 20.123316-16.283872 36.406165-36.33658 36.406164z m-691.373296 0c0 80.422657 65.205071 145.591913 145.555073 145.591913h145.55712c80.351026 0 145.555074-65.170279 145.555074-145.591913H293.665855z m509.411035-582.40142c0-80.422657-65.13344-145.590889-145.556097-145.590889H366.479207c-80.422657 0-145.556097 65.169255-145.556097 145.590889V529.609309h-72.813352v-509.624906c0-80.386842 65.205071-145.590889 145.556097-145.59089H730.334145c80.351026 0 145.556097 65.205071 145.556097 145.59089V529.609309h-72.813352v-436.810531z m-363.855962 36.406165V493.203144c0 20.122293-16.282848 36.406165-36.406164 36.406165-20.052708 0-36.335556-16.283872-36.335557-36.406165v-363.998201c0-20.122293 16.282848-36.406165 36.335557-36.406165 20.123316 0 36.406165 16.283872 36.406164 36.406165z m218.298842 0V493.203144c0 20.122293-16.282848 36.406165-36.335557 36.406165-20.123316 0-36.406165-16.283872-36.406165-36.406165v-363.998201c0-20.122293 16.282848-36.406165 36.406165-36.406165 20.052708 0 36.335556 16.283872 36.335557 36.406165z"  horiz-adv-x="1024" />

    
    <glyph glyph-name="xiala" unicode="&#59079;" d="M990.343971 648.902252c-41.600467 40.271192-109.190865 40.271192-150.874219 0L505.010307 326.378651l-337.128227 327.09164c-37.863353 36.784788-99.226932 36.784788-137.090285 0-37.864376-36.7019-37.864376-96.320743 0-133.022643l388.81747-377.24183c4.959965-9.389858 11.497868-18.201547 19.631106-26.059515 22.352077-21.638833 52.207036-31.643698 81.515548-30.028921 16.598027 0.509606 33.07428 5.131881 47.691186 13.863753a106.521059 106.521059 0 0 1 21.667485 16.165168l400.228357 385.947096c41.684378 40.271192 41.684378 105.536638 0.001024 145.808853z"  horiz-adv-x="1024" />

    
    <glyph glyph-name="shuxing" unicode="&#59080;" d="M511.999488 888.235153c-281.473673 0-509.606487-225.774093-509.606486-504.265852 0-278.43036 228.133837-504.204453 509.606486-504.204454s509.606487 225.774093 509.606487 504.204454c0 278.491759-228.133837 504.265852-509.606487 504.265852z m63.708998-819.394019H448.291514V510.08258h127.417995V68.841134z m0 504.266875H448.291514v126.050857h127.417995v-126.050857z"  horiz-adv-x="1024" />

    
    <glyph glyph-name="duoxuan" unicode="&#59082;" d="M936.671561-125.606487h-934.278559v1019.212974h1019.212973v-1019.212974h-84.934414z m0 934.278559h-849.344145v-849.344144h849.344145v849.344144z"  horiz-adv-x="1024" />

    
    <glyph glyph-name="duoxuanxuanzhong" unicode="&#59083;" d="M936.671561-125.606487h-934.278559v1019.212974h1019.212973v-1019.212974h-84.934414z m0 934.278559h-849.344145v-849.344144h849.344145v849.344144zM288.175817 434.098002l133.870963-137.022747 313.817312 321.407174c26.542516 27.122731 69.589938 27.122731 95.965655 0 26.542516-27.205619 26.542516-71.248717 0-98.371448L470.030631 149.518594c-13.18837-13.519921-30.648021-20.320814-47.982827-20.320814s-34.670637 6.718005-48.065716 20.320814L192.168206 335.809441c-26.583448 27.039843-26.583448 71.248717 0 98.288561 26.542516 27.122731 69.549006 27.122731 96.007611 0z"  horiz-adv-x="1024" />

    
    <glyph glyph-name="daochuExcel" unicode="&#59081;" d="M1008.809531 129.979586l-145.602146-168.06781c-7.890714-9.100262-18.839067-14.71719-30.854728-14.71719-24.171516 0-43.722804 22.537296-43.722804 50.40704 0 13.934361 4.904707 26.517957 12.796444 35.618219l71.02359 81.971943H482.850611c-24.100908 0-43.651173 22.536272-43.651172 50.406017 0 27.798113 19.550265 50.40704 43.651172 50.40704h389.599276l-71.02359 81.900311c-7.891737 9.171893-12.796444 21.75549-12.796444 35.689851 0 27.832905 19.550265 50.406017 43.722804 50.406016 12.015661 0 22.964014-5.65172 30.854728-14.787798l145.602146-167.996178c7.891737-9.100262 12.797467-21.75549 12.797467-35.619242-0.001023-13.935384-4.906753-26.51898-12.797467-35.618219zM657.601634 602.403219H439.199439l2.274809 218.403218H147.995147c-40.238446 0-72.801073-32.596396-72.801073-72.801073v-728.008682c0-40.168862 32.561603-72.802096 72.801073-72.802096h436.805414c40.168862 0 72.801073 32.633235 72.801073 72.802096h72.802096v-72.802096c0-40.167838-32.633235-72.801073-72.802096-72.801073H75.194074c-40.23947 0-72.801073 32.633235-72.801072 72.801073V820.806437c0 40.203654 32.56058 72.801073 72.801072 72.801073h450.455296l204.753337-218.402195v-291.204292h-72.802096V602.403219h0.001023z"  horiz-adv-x="1024" />

    
    <glyph glyph-name="baobiaoliebiao" unicode="&#59084;" d="M228.884432 44.26234199999999c31.270191 0 56.623625 25.352411 56.623626 56.623625V610.4914309999999c0 31.270191-25.353434 56.622602-56.623626 56.622602s-56.622602-25.353434-56.622602-56.622602v-509.605464c0-31.270191 25.353434-56.623625 56.622602-56.623625z m283.115056 0c31.296797 0 56.622602 25.352411 56.622602 56.623625V440.622602c0 31.270191-25.325805 56.622602-56.622602 56.622602-31.270191 0-56.622602-25.353434-56.622602-56.622602v-339.736635c0-31.270191 25.353434-56.623625 56.622602-56.623625z m283.114033 0c31.29782 0 56.623625 25.352411 56.623625 56.623625V780.36026c0 31.270191-25.325805 56.622602-56.623625 56.622602-31.296797 0-56.622602-25.353434-56.622602-56.622602v-679.474293c0-31.270191 25.325805-56.623625 56.622602-56.623625z m198.180642-56.623625H30.704814c-15.621792 0-28.311813-12.688997-28.311812-28.310789 0-15.649422 12.69002-28.310789 28.311812-28.31079h962.589349c15.59314 0 28.311813 12.661368 28.311812 28.31079 0 15.621792-12.717649 28.310789-28.311812 28.310789z"  horiz-adv-x="1024" />

    
    <glyph glyph-name="shangla" unicode="&#59085;" d="M990.38513 264.940941L590.178875 650.821225c-6.651344 6.446687-13.916658 11.767763-21.693615 16.167883-14.632957 8.697911-31.107825 13.302688-47.68502 13.81433-29.265914 1.637254-59.145798-8.390926-81.555711-29.982213-8.083941-7.879285-14.632957-16.679524-19.647047-26.093734L30.749675 247.545118c-37.861497-36.735885-37.861497-96.290996 0-133.026881 37.861497-36.735885 99.258519-36.735885 137.120016 0L505.041671 441.662037l334.409113-322.539023c41.647647-40.317378 109.286699-40.317378 150.832018 0 41.749975 40.317378 41.749975 105.50055 0.102328 145.817927z"  horiz-adv-x="1024" />

    
    <glyph glyph-name="paichaqingkuang" unicode="&#59086;" d="M959.840236-68.982862H64.15874c-34.117029 0-61.764716 27.039843-61.764715 60.383253V625.587244c0 33.371038 27.64871 60.410881 61.764715 60.410881H280.365944V776.600633c0 33.343409 27.647687 60.383252 61.764715 60.383252h339.737658c34.117029 0 61.764716-27.039843 61.764716-60.383252v-90.602508h216.20618c34.118052 0 61.765739-27.067472 61.765739-60.410881v-634.186853c0.001023-33.343409-27.646664-60.383252-61.764716-60.383253zM651.013589 746.381377H373.01404v-60.383252h277.999549v60.383252z m277.91666-150.985759H95.041098V21.646252h833.888128V595.395618h0.001023zM465.662137 474.602507H558.33684v-120.79311h123.531477v-90.630137H558.337863v-120.766504h-92.674703V263.178237H342.130659v90.630137h123.531478V474.602507z"  horiz-adv-x="1024" />

    
    <glyph glyph-name="tuli" unicode="&#59087;" d="M115.639229 836.983885c-62.539358 0-113.246227-50.705845-113.246227-113.246227S53.09987 610.491431 115.639229 610.491431s113.245204 50.706869 113.245203 113.246227-50.704822 113.246227-113.245203 113.246227z m283.114032-169.868829h566.229089c31.29782 0 56.623625 25.353434 56.623625 56.622602s-25.325805 56.622602-56.623625 56.622602H398.753261c-31.296797 0-56.622602-25.352411-56.622602-56.622602s25.325805-56.622602 56.622602-56.622602z m-283.114032-169.868829c-62.539358 0-113.246227-50.705845-113.246227-113.246227S53.09987 270.754796 115.639229 270.754796s113.245204 50.705845 113.245203 113.245204-50.704822 113.246227-113.245203 113.246227z m849.343121-56.623625H398.753261c-31.296797 0-56.622602-25.352411-56.622602-56.622602 0-31.242562 25.325805-56.623625 56.622602-56.623625h566.229089c31.29782 0 56.623625 25.381064 56.623625 56.623625 0 31.270191-25.325805 56.622602-56.623625 56.622602zM115.639229 157.507546c-62.539358 0-113.246227-50.705845-113.246227-113.245204S53.09987-68.982862 115.639229-68.982862s113.245204 50.705845 113.245203 113.245204-50.704822 113.245204-113.245203 113.245204z m849.343121-56.621579H398.753261c-31.296797 0-56.622602-25.381064-56.622602-56.623625s25.325805-56.623625 56.622602-56.623625h566.229089c31.29782 0 56.623625 25.381064 56.623625 56.623625s-25.325805 56.623625-56.623625 56.623625z"  horiz-adv-x="1024" />

    
    <glyph glyph-name="icon-map" unicode="&#59089;" d="M512.000512 62.514484c115.046901 0 208.339401-42.652298 208.339401-95.255196 0-52.603921-93.2925-95.256219-208.339401-95.256218-115.082717 0-208.341447 42.652298-208.341448 95.256218 0 52.602897 93.258731 95.255195 208.341448 95.255196zM595.084539 61.601697c-30.702164-61.88835-71.911604-81.567493-82.531444-79.610937a3.141541 3.141541 0 0 0-0.552583 0.149403v-0.11154l-0.553607-0.107447c-10.618817-1.961672-51.82621 17.716447-82.531444 79.604797-106.353941 214.333911-276.779961 260.795966-276.779961 467.103087C152.1355 731.457973 313.276067 896 511.999488 896c198.720351 0 359.863989-164.542027 359.863989-367.335125 0-206.308144-170.464905-252.769176-276.778938-467.063178z"  horiz-adv-x="1024" />

    
    <glyph glyph-name="icon-map1" unicode="&#59090;" d="M512.000512 62.514484c115.046901 0 208.339401-42.652298 208.339401-95.255196 0-52.603921-93.2925-95.256219-208.339401-95.256218-115.082717 0-208.341447 42.652298-208.341448 95.256218 0 52.602897 93.258731 95.255195 208.341448 95.255196zM595.084539 61.601697c-30.702164-61.88835-71.911604-81.567493-82.531444-79.610937a3.141541 3.141541 0 0 0-0.552583 0.149403v-0.11154l-0.553607-0.107447c-10.618817-1.961672-51.82621 17.716447-82.531444 79.604797-106.353941 214.333911-276.779961 260.795966-276.779961 467.103087C152.1355 731.457973 313.276067 896 511.999488 896c198.720351 0 359.863989-164.542027 359.863989-367.335125 0-206.308144-170.464905-252.769176-276.778938-467.063178z"  horiz-adv-x="1024" />

    
    <glyph glyph-name="qitaxinxi" unicode="&#59091;" d="M937.004135 777.817344c0 16.975627-13.824867 30.854728-30.745235 30.854728H117.71347c-16.949021 0-30.745235-13.879102-30.745234-30.854728v-787.633665c0-16.975627 13.796214-30.854728 30.745234-30.854728h204.953906c19.906375-36.495192 54.853305-63.478753 96.987938-71.607898v-13.326516H117.71347c-63.700811 0-115.319445 51.813063-115.319445 115.789142V777.817344C2.394025 841.795471 54.012659 893.606487 117.71347 893.606487h788.54543c63.700811 0 115.348098-51.812039 115.348098-115.789143v-308.937165h-84.602863V777.817344zM483.687676 214.131171c46.89096 0 84.934414-38.043455 84.934414-84.934414 0-46.946218-38.043455-84.934414-84.934414-84.934415-46.918589 0-84.934414 37.988196-84.934415 84.934415 0 46.89096 38.016849 84.934414 84.934415 84.934414z m226.491431 0c46.89096 0 84.934414-38.043455 84.934414-84.934414 0-46.946218-38.043455-84.934414-84.934414-84.934415-46.889937 0-84.934414 37.988196-84.934415 84.934415 0 46.89096 38.044478 84.934414 84.934415 84.934414zM176.326403 722.0236199999999h671.318542v-81.672114H176.326403v81.672114z m0-419.694711v81.672114h166.025291v-81.672114H176.326403z m0 251.53992h536.50716v-81.72635H176.326403v81.72635z m760.345158-339.737658c46.889937 0 84.934414-38.043455 84.934414-84.934414 0-46.946218-38.044478-84.934414-84.934414-84.934415-46.89096 0-84.934414 37.988196-84.934415 84.934415 0 46.89096 38.043455 84.934414 84.934415 84.934414z"  horiz-adv-x="1024" />

    
    <glyph glyph-name="fenleitongji" unicode="&#59101;" d="M114.233206 838.638571C51.442114 838.638571 0.532631 787.728064 0.532631 724.936973s50.909483-113.700575 113.700575-113.700575 113.700575 50.909483 113.700575 113.700575-50.909483 113.701598-113.700575 113.701598z m227.40115-170.551374h625.353674c31.422663 0 56.850799 25.454742 56.850799 56.850799s-25.428136 56.850799-56.850799 56.850799H341.634356c-31.395034 0-56.850799-25.454742-56.850799-56.850799s25.455765-56.850799 56.850799-56.850799zM114.233206 497.535823C51.442114 497.535823 0.532631 446.626339 0.532631 383.835248c0-62.790068 50.909483-113.700575 113.700575-113.700575S227.933781 321.045179 227.933781 383.835248c0 62.791092-50.909483 113.700575-113.700575 113.700575z m852.754824-56.849776H341.634356c-31.395034 0-56.850799-25.454742-56.850799-56.850799 0-31.367405 25.454742-56.850799 56.850799-56.850799h625.353674c31.422663 0 56.850799 25.482371 56.850799 56.850799 0 31.396057-25.428136 56.850799-56.850799 56.850799zM114.233206 156.434098C51.442114 156.434098 0.532631 105.523591 0.532631 42.733523s50.909483-113.700575 113.700575-113.700575 113.700575 50.910507 113.700575 113.700575-50.909483 113.700575-113.700575 113.700575z m852.754824-56.849776H341.634356c-31.395034 0-56.850799-25.482371-56.850799-56.850799s25.454742-56.850799 56.850799-56.850799h625.353674c31.422663 0 56.850799 25.482371 56.850799 56.850799s-25.428136 56.850799-56.850799 56.850799z"  horiz-adv-x="1024" />

    
    <glyph glyph-name="fenqutongji" unicode="&#59102;" d="M270.241267-127.99386C121.246731-127.99386 0.021489-6.769642 0.021489 142.221824c0 148.994536 121.225242 270.219778 270.219778 270.219778 148.991466 0 270.216708-121.225242 270.216708-270.219778 0-148.991466-121.225242-270.215684-270.216708-270.215684z m0 469.943391c-110.122436 0-199.72873-89.606293-199.728729-199.72873 0-110.119366 89.606293-199.726683 199.728729-199.726683 110.119366 0 199.726683 89.606293 199.726683 199.726683 0 110.122436-89.607317 199.72873-199.726683 199.72873zM753.753617-127.99386c-149.013978 0-270.217731 121.228312-270.217731 270.219777S604.739638 412.444672 753.753617 412.444672s270.218754-121.228312 270.218754-270.218755c0.001023-148.991466-121.204776-270.219778-270.218754-270.219777z m0 469.94646c-110.142902 0-199.727706-89.606293-199.727707-199.726683S643.610714-57.500765 753.753617-57.500765c110.141879 0 199.726683 89.606293 199.726683 199.726682S863.895496 341.9526 753.753617 341.9526zM512.011256 355.562491c-149.016025 0-270.24229 121.227289-270.24229 270.219778C241.768966 774.773735 362.994208 896 512.011256 896c149.015002 0 270.215684-121.226265 270.215685-270.217731 0-148.992489-121.201706-270.219778-270.215685-270.219778z m0 469.946461c-110.143926 0-199.751242-89.606293-199.751242-199.726683s89.606293-199.726683 199.751242-199.726683c110.140856 0 199.72566 89.606293 199.72566 199.726683S622.152112 825.508952 512.011256 825.508952z"  horiz-adv-x="1024" />

    
    <glyph glyph-name="jiancejieguo" unicode="&#59103;" d="M792.326035 721.378937H582.762135c-20.231787 88.545662-92.711542 138.194432-205.733664 138.194432H228.337987C106.351702 859.573369 7.184121 763.524826 7.184121 645.195837c0 0 0.602727-71.64576 0.61603-125.483946A213.254965 213.254965 0 0 1 7.184121 503.597889v-377.388163C7.184121 6.147256 108.079042-91.572346 232.037239-91.572346H792.326035c124.017548 0 224.913493 97.719602 224.913493 217.782072V503.597889c0 120.122845-100.895945 217.781048-224.913493 217.781048zM228.337987 798.366356H377.027447c76.587306 0 122.946147-25.272593 140.390448-76.987419H232.037239c-63.246463 0-120.477932-25.433252-161.378458-66.290799C75.816245 734.959234 144.542512 798.366356 228.337987 798.366356z m725.687824-672.157654c0-86.333274-72.52478-156.63748-161.700799-156.637479H232.037239c-89.177042 0-161.701822 70.304206-161.701822 156.637479V503.597889c0 86.333274 72.52478 156.636456 161.701822 156.636456H792.326035c89.176019 0 161.700799-70.304206 161.700799-156.636456v-377.389187z m-208.3257 45.115524h-450.63335V461.080539c0 15.84385-13.3214 28.65462-29.664624 28.654621-16.3422 0-29.602202-12.81077-29.602201-28.654621v-305.103859c0-1.904373 0.196475-3.76372 0.561795-5.564739a25.505907 25.505907 0 0 1-0.561795-5.328356c0-14.544251 12.149714-26.240641 27.074635-26.240641h482.826564c14.987343 0 27.073612 11.69639 27.073612 26.240641-0.001023 14.482853-12.087293 26.240641-27.074636 26.240641zM402.43614 260.565736l68.348668 65.887617 68.007907-65.701375c6.071276-5.78782 14.134929-8.404414 22.001083-7.868201 8.257058-1.033539 16.900925 1.511423 23.264866 7.682983L670.214906 343.619314c0.407276 0.396019 0.796132 0.803295 1.174756 1.216711l69.930699 67.415413c10.979052 10.582009 11.040451 27.848255 0.186242 38.617529-5.242398 5.135974-12.334933 8.045233-19.796882 8.106632-7.399527 0-14.554484-2.846838-19.85828-7.922437l-86.092797-83.051531c-0.464581-0.449231-0.902556-0.916882-1.328252-1.390673l-52.824089-50.995441-68.945255 66.558905c-5.691629 5.486968-13.224186 8.138354-20.696368 7.951089a28.016077 28.016077 0 0 1-2.922563 0.155542c-7.461949 0.061398-14.616906-2.785439-19.859303-7.858991l-86.154195-83.116c-10.978029-10.583033-11.100826-27.849278-0.185219-38.55613 10.854209-10.704806 28.553313-10.828626 39.59274-0.184196z"  horiz-adv-x="1024" />

    
    <glyph glyph-name="gaojichaxun" unicode="&#59109;" d="M102.677009 793.322479c-56.512085 0-102.33062-45.818535-102.33062-102.330619s45.818535-102.33062 102.33062-102.33062 102.33062 45.818535 102.33062 102.33062-45.818535 102.33062-102.33062 102.330619z m255.82655-153.495929h613.983719c28.281113 0 51.16531 22.909779 51.16531 51.16531s-22.884197 51.16531-51.16531 51.165309h-613.983719c-28.255531 0-51.16531-22.909779-51.16531-51.165309s22.909779-51.16531 51.16531-51.16531z m-255.82655-153.49593c-56.512085 0-102.33062-45.818535-102.33062-102.33062s45.818535-102.33062 102.33062-102.33062 102.33062 45.818535 102.33062 102.33062-45.818535 102.33062-102.33062 102.33062z m869.810269-51.16531h-613.983719c-28.255531 0-51.16531-22.909779-51.16531-51.16531 0-28.230971 22.909779-51.16531 51.16531-51.16531h613.983719c28.281113 0 51.16531 22.934339 51.16531 51.16531 0 28.255531-22.884197 51.16531-51.16531 51.16531z m-869.810269-255.82655c-56.512085 0-102.33062-45.818535-102.33062-102.33062s45.818535-102.33062 102.33062-102.330619 102.33062 45.818535 102.33062 102.330619-45.818535 102.33062-102.33062 102.33062z m869.810269-51.16531h-613.983719c-28.255531 0-51.16531-22.934339-51.16531-51.16531s22.909779-51.16531 51.16531-51.165309h613.983719c28.281113 0 51.16531 22.934339 51.16531 51.165309s-22.884197 51.16531-51.16531 51.16531z"  horiz-adv-x="1024" />

    
    <glyph glyph-name="tuli1" unicode="&#59110;" d="M438.906773 822.559361v-146.185431h584.745815V822.559361H438.906773z m-292.372907-511.653099h877.119745V457.093738H146.533866v-146.187476zM0.346389-54.559361h1023.306199V91.627093H0.346389V-54.559361z"  horiz-adv-x="1024" />

    
    <glyph glyph-name="ceju" unicode="&#59111;" d="M997.889831 584.932312L712.171484 868.903875c-12.842493 12.717649-28.490891 25.809829-47.192836 25.809829-18.017352 0-32.543184-12.156878-43.141566-22.567995C418.66066 673.147446 222.529701 478.262874 22.533714 276.272463c-29.613458-29.363771-29.613458-60.473303 0.187265-90.024339 65.709561-63.21474 131.3567-129.173988 194.884572-193.012945 33.103956-33.291221 66.332754-66.644863 99.873662-99.998505 9.351995-9.351995 22.630417-19.950378 42.081421-19.950378 20.323884 0 32.668027 10.473539 42.580794 18.827811 2.368954 2.056845 4.675486 4.052293 8.852622 7.294126l591.573313 588.330456c29.299303 39.962154 28.364001 60.721967-4.677532 97.193623zM280.072255 146.785344c11.783371 0 20.947078 7.543813 28.42847 14.962783 40.086997 39.898709 40.086997 49.936319 0 89.836051l-77.616752 77.118402c-3.491521 3.490497-5.050016 5.361101-5.67321 5.361101H225.148341c0.560772 0.997724 2.057869 3.054569 5.735632 6.732331l4.301979 4.30198c8.852622 8.7902 18.017352 17.954931 19.513426 19.014052 3.241834-1.059122 12.344143-10.223852 21.259186-19.014052l4.301979-4.30198c4.364401-4.300956 9.039887-8.602935 13.777795-12.967336 8.167007-7.54279 16.70752-15.33629 22.193465-22.567995 9.725502-12.531408 23.316032-26.869974 41.831734-26.869974 18.390859 0 32.04381 14.338566 41.458227 26.433023 9.475815 11.283997 19.326161 23.003923 17.456581 37.841863-1.683339 13.153578-12.464893 22.193465-19.699668 27.368324-7.294127 5.798053-14.650675 13.09218-21.944801 20.386306-8.229428 8.165983-16.457834 16.270569-23.316032 21.695115-10.910491 10.784624-22.193465 22.007223-23.067368 25.124214 1.060145 3.989871 13.59053 15.461133 25.686008 26.496467 1.308809 0.935302 2.742461 1.994424 3.92745 2.868327 0.49835-0.436952 1.122567-1.060145 1.870603-1.74576 14.152325-15.648398 29.176506-30.610158 44.13929-45.51052 14.525831-14.400988 29.051663-28.801976 43.390229-44.63764 12.406564-12.344143 24.00267-22.630417 39.587624-22.630416 16.20917 0 28.242228 11.658528 36.034704 20.386306l4.177136 4.862751c15.46011 17.5804 34.724873 39.46278-3.179412 73.003687-16.957207 13.404288-31.981389 28.801976-47.879474 45.13599-12.281721 12.593829-24.750707 25.3739-37.779441 36.968983-3.491521 3.491521-4.987594 5.54939-5.67321 5.861498 0.685615 0.997724 2.181689 2.743484 5.17486 5.67321l7.854898 7.230681c6.296403 5.798053 13.404288 12.344143 13.652951 13.279445 3.304256-1.183965 12.842493-10.723226 22.131043-19.949355l54.426587-53.92619c8.976442-11.844769 18.826787-14.33959 25.497721-14.339589 8.915044 0 17.394159 4.177136 25.000393 11.844769 23.564695 19.825534 35.472909 29.800723 35.846417 45.511543 0.249687 15.959483-11.596106 26.931373-34.849716 48.252981-4.925173 4.925173-9.850345 10.162454-14.900362 15.46011-11.097756 11.720949-22.569018 23.877827-35.536354 34.601052-3.553942 3.116991-5.111414 5.174859-5.798053 5.54939 1.684362 1.86958 5.922896 4.799306 8.66638 6.607488l5.548366 3.928472c4.925173 3.677762 8.541537 8.416693 11.720949 12.592806 1.933025 2.431376 4.862751 6.172583 4.114715 6.671957 0 0 2.306532-0.686638 7.169283-5.485945l92.018763-91.333148c10.411117-12.903891 20.884656-19.201318 31.918967-19.201317 13.96506 0 23.191188 10.037611 29.986965 17.331737 2.868327 3.054569 5.861498 6.233981 8.66638 7.91732 9.725502 6.420223 22.75526 16.832364 23.752984 32.729425 0.685615 12.032034-5.485945 23.503297-19.575848 35.47291-29.052686 23.192212-52.430116 48.939619-79.424934 78.80174l-3.179412 3.429099c-3.054569 3.054569-6.982018 5.922896-10.848069 8.66638-1.122567 0.810459-2.555196 1.808182-3.802606 2.804883 9.475815 14.900362 17.642822 20.698414 28.55229 20.698414 9.16473 0 14.83794-2.618641 23.12979-10.909467l185.658443-184.472432c19.451004-21.88238 19.201318-30.610158-2.432399-49.750078l-493.821988-490.828818c-18.952654-18.826787-27.306926-18.701944-46.258557 0L147.032216 208.38019c-20.448728 20.323884-16.396435 28.428469-7.606235 38.652322 9.475815 13.217023 12.967336 14.338566 13.59053 14.46341 0.187265-0.062422 3.740184-0.49835 11.720949-9.600659 14.213723-15.71082 29.176506-30.485315 44.075845-45.323255 14.588253-14.525831 29.114085-29.052686 43.452651-44.824905 7.66968-7.54279 16.08535-14.96176 27.806299-14.961759z"  horiz-adv-x="1024" />

    
    <glyph glyph-name="tiaojianshaixuan" unicode="&#59112;" d="M102.677009 793.322479c-56.512085 0-102.33062-45.818535-102.33062-102.330619s45.818535-102.33062 102.33062-102.33062 102.33062 45.818535 102.33062 102.33062-45.818535 102.33062-102.33062 102.330619z m255.82655-153.495929h613.983719c28.281113 0 51.16531 22.934339 51.16531 51.16531s-22.884197 51.16531-51.16531 51.165309h-613.983719c-28.255531 0-51.16531-22.934339-51.16531-51.165309s22.909779-51.16531 51.16531-51.16531z m-255.82655-153.49593c-56.512085 0-102.33062-45.818535-102.33062-102.33062s45.818535-102.33062 102.33062-102.33062 102.33062 45.818535 102.33062 102.33062-45.818535 102.33062-102.33062 102.33062z m869.810269-51.16531h-613.983719c-28.255531 0-51.16531-22.934339-51.16531-51.16531s22.909779-51.16531 51.16531-51.16531h613.983719c28.281113 0 51.16531 22.934339 51.16531 51.16531s-22.884197 51.16531-51.16531 51.16531z m-869.810269-255.82655c-56.512085 0-102.33062-45.818535-102.33062-102.33062s45.818535-102.33062 102.33062-102.330619 102.33062 45.818535 102.33062 102.330619-45.818535 102.33062-102.33062 102.33062z m869.810269-51.16531h-613.983719c-28.255531 0-51.16531-22.934339-51.16531-51.16531s22.909779-51.16531 51.16531-51.165309h613.983719c28.281113 0 51.16531 22.934339 51.16531 51.165309s-22.884197 51.16531-51.16531 51.16531z"  horiz-adv-x="1024" />

    
    <glyph glyph-name="fanhui" unicode="&#59113;" d="M505.89035 298.602028V469.36625l269.699512 280.568047c32.292474 33.291221 32.292474 87.38114 0 120.67236C759.475859 887.345899 738.364029 895.653099 717.253222 895.653099c-21.173229 0-42.22366-8.3072-58.337663-25.046442L248.338506 444.383252c-32.197306-33.353642-32.197306-87.443561 0-120.733758l410.578077-426.28685c32.229029-33.353642 84.444251-33.353642 116.674302 0 32.292474 33.353642 32.292474 87.318718 0 120.67236L505.89035 298.602028z"  horiz-adv-x="1024" />

    
    <glyph glyph-name="wodeshuju" unicode="&#59114;" d="M548.40463 485.217263h255.683286c74.520227 0 73.378218 36.404118 61.886489 57.961086-0.927115 1.070378-293.728788 270.673699-295.441802 271.744078-5.425569 4.461615-13.990642 7.637957-22.700002 7.637957H146.49805C65.803193 822.560384 0.347412 762.101407 0.347412 687.615972V80.384028c0-74.484412 65.455781-134.943388 146.150638-134.943389h255.754918c20.165272 0 36.546358 15.131629 36.546358 33.727149 0 18.629289-16.382109 33.761941-36.546358 33.761942h-255.754918c-40.436968 0-73.093738 30.15888-73.093738 67.454298V687.614949c0 37.296441 32.656771 67.490114 73.093738 67.490114h365.359199v-236.161675c0-18.629289 16.34527-33.726126 36.547381-33.726125z m36.545334 220.207307l165.387771-152.753009H584.949964V705.42457z m-72.807213-354.224604c0-37.295418 114.493637-67.596538 255.755942-67.596537 141.261281 0 255.754918 30.300097 255.754918 67.596537 0 37.403888-114.493637 67.633377-255.754918 67.633377-141.262304 0-255.755941-30.30112-255.755942-67.633377z m255.755942-135.728264c-141.262304 0-255.755941 30.193673-255.755942 67.597561v-269.888823c0-37.368072 114.493637-67.597561 255.755942-67.597561 141.261281 0 255.754918 30.229488 255.754918 67.597561V283.06824c-0.001023-37.402865-114.493637-67.596538-255.754918-67.596538z m0 0"  horiz-adv-x="1024" />

    
    <glyph glyph-name="quanbushuju" unicode="&#59115;" d="M943.49292 895.653099H664.968415c-44.327578 0-80.160691-35.761482-80.160691-80.089059v-278.240026c0-44.326555 35.833113-80.088036 80.160691-80.088036h278.525528c44.326555 0 80.159668 35.760458 80.159668 80.088036V815.56404C1023.652588 859.891617 987.820498 895.653099 943.49292 895.653099z m14.491039-358.329085c0-8.065699-6.424316-14.490016-14.490016-14.490015H664.968415c-8.066723 0-14.490016 6.424316-14.490015 14.490015V815.56404c0 8.065699 6.423293 14.490016 14.490015 14.490015h278.525528c8.065699 0 14.490016-6.424316 14.490016-14.490015v-278.240026zM358.996792 311.406658H80.50708c-44.327578 0-80.159668-35.833113-80.159668-80.089059v-278.311657c0-44.255946 35.833113-80.016405 80.159668-80.016405H358.996792c44.326555 0 80.159668 35.760458 80.159668 80.016405V231.317599c0 44.255946-35.833113 80.08906-80.159668 80.089059z m14.490016-358.400716c0-8.065699-6.424316-14.490016-14.490016-14.490016H80.50708c-8.065699 0-14.490016 6.424316-14.490016 14.490016V231.317599c0 7.995091 6.424316 14.419408 14.490016 14.419407H358.996792c8.065699 0 14.490016-6.424316 14.490016-14.419407v-278.311657zM219.734028 895.653099C98.708628 895.653099 0.346389 797.362492 0.346389 676.444539S98.708628 457.235978 219.734028 457.235978c121.060193 0 219.422432 98.290607 219.422432 219.208561S340.794222 895.653099 219.734028 895.653099z m0-372.8191c-84.763522 0-153.716964 68.953442-153.716964 153.61054S134.970506 830.054055 219.734028 830.054055c84.799338 0 153.75278-68.953442 153.75278-153.609516 0-84.657098-68.953442-153.61054-153.75278-153.61054z m723.758892-212.069977H664.968415c-44.327578 0-80.160691-35.761482-80.160691-80.08906v-278.311656c0-44.255946 35.833113-80.016405 80.160691-80.016405h278.525528c44.326555 0 80.159668 35.760458 80.159668 80.016405V230.674962c-0.001023 44.327578-35.833113 80.08906-80.160691 80.08906z m14.491039-358.400716c0-7.995091-6.424316-14.418384-14.490016-14.418385H664.968415c-8.066723 0-14.490016 6.423293-14.490015 14.418385V230.674962c0 8.066723 6.423293 14.490016 14.490015 14.490016h278.525528c8.065699 0 14.490016-6.423293 14.490016-14.490016v-278.311656z"  horiz-adv-x="1024" />

    
    <glyph glyph-name="quanbushouqi" unicode="&#59116;" d="M1003.345076 197.431837L511.968789 689.20619 20.691763 197.431837c-27.126824-27.077705-27.126824-71.077825 0-98.255814 27.127847-27.176966 71.127967-27.176966 98.255815 0l393.021211 393.320017 393.021212-393.320017c27.176966-27.176966 71.178109-27.176966 98.354052 0 27.078729 27.177989 27.078729 71.178109 0.001023 98.255814z"  horiz-adv-x="1024" />

    
    <glyph glyph-name="xialaxuanxiang" unicode="&#59117;" d="M1003.277538 671.275819c-27.167756 27.366278-71.113641 27.366278-98.280374 0L511.973906 274.558425l-393.021212 396.717394c-27.117614 27.366278-71.113641 27.366278-98.230232 0-27.166733-27.367301-27.166733-71.713298 0-99.17986l491.252467-495.89623 491.303632 495.89623c27.16571 27.466562 27.16571 71.812559-0.001023 99.17986z"  horiz-adv-x="1024" />

    
    <glyph glyph-name="shijian" unicode="&#59118;" d="M512.017908 895.653099c-282.147008 0-511.653099-229.471298-511.653099-511.688915 0-282.074354 229.506091-511.617283 511.653099-511.617283 282.07333 0 511.617283 229.541907 511.617283 511.617283C1023.635191 666.182824 794.091238 895.653099 512.017908 895.653099z m0-938.012603c-235.360426 0.285502-426.109818 191.000102-426.359504 426.323688 0.249687 235.396241 190.999079 426.110841 426.359504 426.396344 235.323587-0.285502 426.038186-191.000102 426.323688-426.396344-0.285502-235.323587-191.000102-426.038186-426.323688-426.323688zM710.226179 258.629641l-176.868244 102.280478V639.844969c0 23.62507-19.092847 42.682102-42.682101 42.682102-23.554462 0-42.647309-19.057031-42.647309-42.682102v-298.490232c0-15.844873 19.664875-29.05064 32.439829-36.330439 3.497661-5.352915 13.276375-10.134825 19.165502-13.560854l175.831634-106.634646c20.413935-11.848862 42.539862-4.782933 54.387702 15.702634 11.634991 20.269649 0.715291 46.322002-19.627013 58.098209z"  horiz-adv-x="1024" />

    
    <glyph glyph-name="mingcheng" unicode="&#59119;" d="M901.783982-120.878812c0.712221-2.210341 0.998747-4.492314 0.998747-6.774287H846.018911L511.643378 208.897983l-334.375534-336.551082h-56.79861c0.071631 2.53166 0.357134 5.027503 1.140986 7.451716-6.881734 8.522094-11.231809 19.253506-11.231809 31.126927V624.815671c0 27.241434 21.785166 49.275263 48.669467 49.275263h705.867405c26.883277 0 48.705282-22.034852 48.705282-49.275263v-713.890127c0-12.193717-4.563946-23.210631-11.836583-31.804356z m-36.868699 721.093179c0 13.620206-10.910491 24.602328-24.316825 24.602327h-657.19794c-13.44215 0-24.352641-11.017938-24.35264-24.602327v-678.876682l335.87263 338.048179c9.234315 9.270131 24.210401 9.270131 33.444716 0l336.620668-338.725608V600.214367h-0.070609z m0 148.396795H159.047878c-26.883277 0-48.669466 18.790972-48.669467 42.001603V853.615681c0 23.211654 21.785166 42.037419 48.669467 42.037418h705.867405c26.883277 0 48.705282-18.825764 48.705282-42.037418v-63.002916c0-23.210631-21.820981-42.001603-48.705282-42.001603z m0 84.004229c0 11.587919-10.910491 21.00029-24.316825 21.00029h-657.19794c-13.44215 0-24.352641-9.41237-24.35264-21.00029v-21.00029c0-11.587919 10.910491-21.001313 24.35264-21.001313h657.19794c13.406335 0 24.316825 9.413394 24.316825 21.001313V832.615391z m0 0"  horiz-adv-x="1024" />

    
    <glyph glyph-name="suozaidi" unicode="&#59120;" d="M988.677005 14.821823h-68.88181V516.910079c0 53.927213-44.327578 97.827049-98.719372 97.827049H690.57256l0.448208 109.853967v0.14224c0 53.928237-44.255946 97.827049-98.719372 97.827049H425.772638c-54.463426 0-98.754165-43.898813-98.754165-97.827049v-296.53674c-2.199085-0.054235-4.325515-0.14224-6.352684-0.226151-3.497661-0.143263-7.102768-0.285502-10.706853-0.285502H201.425034c-54.42761 0-98.719372-43.898813-98.719372-97.826026v-309.219597c0-1.983167 0.177032-3.925403 0.499373-5.81852H35.358811c-19.34458 0-35.012422-15.524578-35.012422-34.69008s15.667841-34.69008 35.012422-34.69008h953.317171c19.272949 0 34.976606 15.524578 34.976606 34.69008s-15.702634 34.691103-34.975583 34.691104zM327.018473 289.242869h-87.08438c-19.308765 0-34.976606-15.524578-34.976606-34.69008s15.667841-34.69008 34.976606-34.69008h87.08438v-87.262436h-87.08438c-19.308765 0-34.976606-15.489786-34.976606-34.654264 0-19.165502 15.667841-34.726919 34.976606-34.72692h87.08438v-48.396243H172.231131a34.618449 34.618449 0 0 1 0.499374 5.818519V329.858916c0 15.667841 12.884448 28.444842 28.695552 28.444842H309.959959c5.103228 0 9.67229 0.178055 13.70514 0.357134l1.569752 0.070608c0.74906-5.460362 1.428535-14.418384 1.428535-28.872584 0-1.672082 0.12689-3.313465 0.357134-4.922103v-35.693944z m293.323559 274.867208c-0.555655-6.477528-0.558725-13.292748-0.558725-20.432354v-3.961219c0-1.859347 0.151449-3.683902 0.436952-5.464455l-2.120291-519.430226H397.042293V724.733335c0 15.703657 12.883425 28.444842 28.730345 28.444842h166.529781c15.775288 0 28.623921-12.741185 28.695552-28.409026l-0.655939-160.659074z m229.42832-549.288254H688.125835l0.726547 178.164772h99.960643c19.416212 0 35.048237 15.525602 35.048237 34.691104 0 19.165502-15.632025 34.69008-35.048237 34.69008H689.135838l0.531096 129.84016h99.147114c19.416212 0 35.048237 15.561417 35.048237 34.691103 0 19.165502-15.632025 34.691103-35.048237 34.691104h-98.863658l0.341784 83.763752h130.786719c15.845896 0 28.694529-12.741185 28.694529-28.444842v-502.087233zM561.823244 632.331855H453.825554c-19.34458 0-35.012422-15.525602-35.012421-34.691103s15.667841-34.69008 35.012421-34.690081h107.99769c19.416212 0 35.048237 15.524578 35.048237 34.690081s-15.633049 34.691103-35.048237 34.691103z m0-199.222367H453.825554c-19.34458 0-35.012422-15.525602-35.012421-34.691104s15.667841-34.691103 35.012421-34.691103h107.99769c19.416212 0 35.048237 15.525602 35.048237 34.691103s-15.633049 34.691103-35.048237 34.691104z m0-199.221344H453.825554c-19.34458 0-35.012422-15.561417-35.012421-34.69008 0-19.165502 15.667841-34.691103 35.012421-34.691104h107.99769c19.416212 0 35.048237 15.525602 35.048237 34.691104 0 19.128663-15.633049 34.69008-35.048237 34.69008z"  horiz-adv-x="1024" />

    
    <glyph glyph-name="danwei" unicode="&#59121;" d="M706.068486 319.048709H833.831334v128.117936H706.068486v-128.117936zM194.77252 575.32142h127.832434V703.475172H194.77252v-128.153752z m191.749162 0h127.797641V703.475172H386.521682v-128.153752zM194.77252 319.048709h127.832434v128.117936H194.77252v-128.117936z m191.749162 0h127.797641v128.117936H386.521682v-128.117936z m-191.749162-256.307504h127.832434V190.894957H194.77252v-128.153752z m191.749162 0h127.797641V190.894957H386.521682v-128.153752z m319.546804 0H833.831334V190.894957H706.068486v-128.153752z m285.215903-126.334313h-29.54899v606.830809c0 25.695219-10.134825 49.855478-28.194132 67.948555-18.057261 18.129916-42.182728 28.158317-67.734684 28.158316H642.116965V799.546228c0 25.695219-9.992585 49.856501-28.121478 67.948555C595.865571 885.624698 571.812759 895.653099 546.260803 895.653099H162.833087c-25.552979 0-49.641607-10.028401-67.734684-28.121477-18.166755-18.058284-28.158317-42.218544-28.158316-67.985394v-863.139336h-34.260292c-17.666358 0-31.940456-14.346753-31.940456-32.04688s14.274098-32.012088 31.940456-32.012088h958.603571c17.701151 0 31.976272 14.310937 31.976272 32.012088s-14.275121 32.04688-31.975249 32.04688z m-413.048337 0h-447.379237V799.546228c0 8.565073 3.318582 16.559141 9.315156 22.6253 6.101975 6.067182 14.096043 9.386788 22.662139 9.386787h383.426693c8.493441 0 16.559141-3.319605 22.6253-9.457395 5.995551-5.995551 9.350972-13.989619 9.350972-22.554692v-863.139336z m319.54578 0H642.116965V575.285604h223.689618c8.494465 0 16.560164-3.318582 22.697955-9.456372 5.995551-6.03239 9.278317-14.025435 9.278317-22.590508v-606.831832z"  horiz-adv-x="1024" />

    
    <glyph glyph-name="leixing" unicode="&#59122;" d="M37.343001 110.067071c0-131.274836 98.750071-237.72017 220.549092-237.72017s220.549092 106.445334 220.549092 237.72017V347.78724H257.821485c-121.800044 0-220.478484-106.480126-220.478484-237.720169z m361.016287 0c0-83.574441-63.09092-151.473877-140.537803-151.473877-77.447906 0-140.537803 67.972091-140.537803 151.473877 0 83.468017 63.089897 151.473877 140.537803 151.473876h140.537803v-151.473876z m588.297711 547.864835C986.656999 789.207765 887.906927 895.653099 766.072091 895.653099c-121.764228 0-220.514299-106.445334-220.514299-237.721193v-237.721193h220.514299c121.905444 0.001023 220.584907 106.482173 220.584908 237.721193z m-361.086896 0c0 83.574441 63.055105 151.473877 140.503011 151.473877 77.446883 0 140.572596-67.971068 140.572596-151.473877 0-83.574441-63.125713-151.473877-140.572596-151.473877H625.570103V657.931906zM257.821485 420.211736h220.549092V657.931906C478.370577 789.207765 379.620505 895.653099 257.821485 895.653099S37.270347 789.208788 37.270347 657.931906c0.072655-131.23902 98.751095-237.72017 220.551138-237.72017z m0 389.19507c77.518514 0 140.537803-67.971068 140.537803-151.473877V506.458029H257.821485c-77.55433 0-140.537803 67.971068-140.537803 151.473877S180.373579 809.406806 257.821485 809.406806z m508.322238-461.619566H545.593608v-237.721193c0-131.274836 98.785887-237.72017 220.549091-237.72017 121.834836 0 220.585931 106.445334 220.585931 237.72017 0 131.241067-98.751095 237.721193-220.584907 237.721193z m0-389.195069c-77.518514 0-140.501988 67.972091-140.501988 151.473876V261.540947h140.501988c77.518514 0 140.572596-68.00586 140.572595-151.473876 0-83.502809-63.054081-151.4749-140.572595-151.4749z m0 0"  horiz-adv-x="1024" />

    
    <glyph glyph-name="huanjing" unicode="&#59123;" d="M1013.943458 844.258569l-0.713244 0.784876a41.371246 41.371246 0 0 1-31.121811 14.062273h-63.671135c-240.408395 0-421.071058-2.49789-556.978401-34.797527-80.58741-19.165502-143.153374-48.324612-191.227276-89.081874-52.28583-44.363394-87.904049-102.217033-108.854197-176.916339-13.919011-49.608861-20.449751-139.012054 6.853082-227.630371 9.171893-29.658484 22.912849-57.961086 40.936341-84.192517l-4.211928-6.709819C35.287179 129.065773 0.346389 73.496154 0.346389-49.883875c0-22.734794 18.594497-41.221844 41.47153-41.221843 11.063987 0 21.449521 4.28356 29.30135 12.098549 7.816013 7.816013 12.134365 18.166755 12.098549 29.158087 0 195.473997 105.321744 295.40701 182.197622 368.357485 10.028401 9.530051 19.522636 18.523889 28.409027 27.374464 56.604182 56.247049 120.490212 103.679337 184.80296 137.1568 58.959833 30.65723 114.77914 47.539736 157.142993 47.539736 22.841218 0 41.400922 18.48705 41.400922 41.221844 0 22.734794-18.559705 41.221844-41.400922 41.221843-56.389288 0-123.986849-19.736507-195.545628-57.031924-71.77265-37.368072-142.652977-89.903589-204.932416-151.897525-26.089192-25.911136-50.965765-53.927213-73.985038-83.37285-5.603625 11.171434-10.207479 22.592554-13.70514 34.048467-23.627117 76.626191-15.061021 150.005432-6.282077 181.341115C205.957257 766.38292 440.333262 776.5904 921.934928 776.5904h10.422374C874.324584 483.574856 769.966795 293.7403 621.996718 212.330152c-52.822043-29.051663-110.747313-43.791365-172.240852-43.791365-69.988004 0-128.019699 19.343557-156.358118 30.872124-11.028171 4.497431-21.914102 9.920954-32.371268 16.132423-6.424316 3.747347-13.740956 5.780657-21.199834 5.780656-14.525831 0-28.195156-7.708566-35.619243-20.164248-11.670807-19.522636-5.210675-44.862767 14.418385-56.461943 13.990642-8.280594 28.588105-15.561417 43.399439-21.6286 32.014134-12.955056 83.407642-29.551036 146.685827-34.94079 13.598716-1.214664 27.659967-1.820462 41.721217-1.820462 75.485205 0 146.721643 18.130939 211.749682 53.892421 82.228793 45.218878 153.324014 118.526487 211.213469 217.959104 67.098187 115.243721 117.421316 267.497357 149.685137 452.585819 1.998517 11.957333-1.284249 24.198122-9.137101 33.513278z"  horiz-adv-x="1024" />

    
    <glyph glyph-name="jianzhumianji" unicode="&#59124;" d="M991.674269 662.704606c17.702174 0 31.978319 14.31196 31.978319 31.978319V863.67478c0 17.666358-14.276145 31.978319-31.978319 31.978319H822.646598c-17.630542 0-31.978319-14.31196-31.978319-31.978319v-52.535516H686.881494c-3.28379 0.499373-6.566556 0.499373-9.707082 0H233.295905V863.67478c0 17.666358-14.310937 31.978319-31.942503 31.978319H32.324708C14.65835 895.653099 0.346389 881.341139 0.346389 863.67478v-168.992878c0-17.666358 14.31196-31.978319 31.978319-31.978319h52.535517V105.260601H32.324708c-17.666358 0-31.978319-14.276145-31.978319-31.943526V-95.675804c0-17.666358 14.31196-31.978319 31.978319-31.978319h169.028694c17.630542 0 31.942503 14.31196 31.942503 31.978319v52.53654H790.668279v-52.53654c0-17.666358 14.347776-31.978319 31.978319-31.978319h169.028694c17.702174 0 31.978319 14.31196 31.978319 31.978319V73.318098c0 17.667382-14.276145 31.943526-31.978319 31.943527H939.139775V553.849386a24.927739 24.927739 0 0 1 0 3.247974V662.704606h52.534494zM854.624916 831.696462h105.072057v-105.036242H854.624916V831.696462z m-705.807031-393.768225a33.093722 33.093722 0 0 1 5.282307 4.282536l305.006646 304.971853h145.329946L148.817885 291.562704V437.928237z m-84.514858 393.768225h105.072057v-51.321876c-0.035816-0.39295-0.035816-0.784876-0.035816-1.213641 0-0.391926 0-0.784876 0.035816-1.213641v-51.287084H64.303027V831.696462z m137.050375-168.991856c17.630542 0 31.942503 14.31196 31.942503 31.978319v52.499701h135.373177L148.817885 527.331429v135.373177h52.535517zM148.817885 201.123926L694.876586 747.182626h95.791693v-39.187511L187.969581 105.261625h-39.151696V201.123926z m-84.514858-264.820388V41.33978h105.072057v-51.28606c-0.035816-0.39295-0.035816-0.821715-0.035816-1.213642 0-0.428765 0-0.821715 0.035816-1.214664v-51.321876H64.303027z m810.879088 398.373103L568.960805 28.455331c-2.284019-2.282996-4.210905-4.888334-5.639441-7.636934H417.77857L875.183138 478.221942v-143.545301z m84.513835-398.373103H854.624916V41.33978h105.072057v-105.036242zM822.646598 105.261625c-17.630542 0-31.978319-14.276145-31.978319-31.943527v-52.499701H651.761626l223.420489 223.419466V105.260601H822.646598z m52.535517 463.399095L327.339792 20.818397h-94.043887v39.401382l602.484828 602.484827h39.402405v-94.043886z m0 0"  horiz-adv-x="1024" />

    
    <glyph glyph-name="yaogan" unicode="&#59125;" d="M902.23526 18.534378c-69.381184 0-147.400095 25.196869-260.180717 88.22639-43.327808 25.196869-86.655615 33.583886-130.055055 33.583886-47.717791 0-91.045599-8.387018-134.409222-33.583886-112.744807-63.029522-190.799534-88.226391-260.180718-88.22639-39.009456 0-73.699536 20.985964-95.399767 63.028498C4.664741 115.146762 0.346389 157.154505 0.346389 211.760171c0 214.247572 130.055055 537.706475 320.853565 537.706475 26.01756 0 52.036143-12.598946 86.726224-25.196869 34.691103-12.598946 69.382207-29.408797 104.072287-29.408797 30.336936 0 69.382207 16.810874 104.072287 29.408797 30.336936 12.598946 60.672848 25.196869 86.727247 25.196869 195.08207 0 320.853565-323.458903 320.853565-537.706475 0-54.605665-8.708336-96.613408-21.699208-130.197295-21.698185-37.83163-56.389288-63.028499-99.717096-63.028498zM520.673032 203.37213c56.354496 0 104.107079-12.598946 156.072614-42.007743 104.072287-58.817594 169.170934-79.802534 229.843782-79.802534 8.709359 0 25.982768 4.176113 34.691104 29.408797 12.990872 25.196869 17.273409 58.817594 17.273408 100.788497 0 189.04968-117.063159 474.712769-255.754918 474.712769-13.063527 0-34.691103-12.633738-56.390311-21.020756-39.044248-16.810874-82.372056-37.796838-130.089847-37.796838-43.327808 0-91.045599 20.985964-130.055055 37.796838-26.01756 8.387018-52.036143 21.020756-60.708663 21.020756-143.081743 0-255.82655-285.663088-255.82655-474.712769 0-41.971927 4.318352-79.802534 17.346063-100.788497 12.990872-25.232684 26.01756-29.408797 34.690081-29.408797 56.354496 0 125.736703 25.197892 229.808989 79.802534 52.036143 29.408797 104.072287 42.007743 164.746158 42.007743h4.353145z m-69.382207 159.641906H269.20065c-17.380856 0-34.726919 12.598946-34.726919 33.583887 0 21.021779 13.026688 29.408797 34.726919 29.408796h182.090175c17.34504 0 34.691103-12.599969 34.691103-33.584909 0-21.019733-17.346063-29.407774-34.691103-29.407774z m-91.044576-88.225367c-17.34504 0-34.691103 12.599969-34.691103 33.619702V480.612385c0 16.810874 12.990872 33.619702 34.691103 33.619702 21.663392 0 34.69008-12.598946 34.69008-33.619702v-176.414919c-4.354168-16.809851-17.34504-29.408797-34.69008-29.408797zM624.780111 392.422833c0-34.833343 29.123294-63.028499 64.956408-63.028498 35.975353 0 65.098647 28.195156 65.098647 63.028498 0 34.762735-29.123294 62.993706-65.098647 62.993707-35.833113-0.001023-64.956408-28.231995-64.956408-62.993707z m0 0"  horiz-adv-x="1024" />

    
    <glyph glyph-name="jianyaoqingkuang" unicode="&#59126;" d="M949.971471 19.440004V748.558973C949.971471 831.685205 886.467135 895.653099 803.984562 895.653099h-584.307839C137.121496 895.653099 73.61716 831.685205 73.61716 748.558973v-729.118969c0-1.925862 0.045025-3.837398 0.112563-5.740748-0.072655-2.308579-0.112564-4.649903-0.112563-7.031137 0-4.456498 0.692778-8.56405 1.983167-12.252045 11.311627-70.596871 70.024843-122.069173 144.076396-122.069173h590.586846c76.204589 0 146.130172 63.967894 139.707902 147.093103zM308.581566 825.298751h196.862623v-319.766814l-82.555228 44.77374c-12.701277 6.386454-19.050891 6.386454-31.752168 0l-82.555227-38.388309V825.298751z m-88.904843 0h25.40153v-370.962823c0-12.771885 6.350638-25.580608 12.701276-31.966039s19.050891-6.385431 31.752169 0l120.658033 57.582463 114.343212-57.582463c0-6.385431 6.314823-6.385431 12.700253-6.38543 6.350638 0 12.701277 6.385431 12.701276 6.38543 12.664438 6.385431 19.050891 19.194154 19.050892 31.966039V825.298751h235.000222c38.101783 0 76.204589-31.965016 76.204589-76.739778v-639.570467H226.026338c-30.209022 0-58.171887-0.002047-82.555227-6.722099V748.558973c0.001023 38.352493 31.752168 76.739778 76.205612 76.739778z m584.307839-882.598526h-584.307839c-38.102806 0-76.204589 31.966039-76.204589 76.739779v12.808723c12.701277 12.771885 50.80306 12.771885 82.555227 12.771885h654.162814v-25.580608c-0.001023-38.387285-31.824823-76.739778-76.205613-76.739779z"  horiz-adv-x="1024" />

    
    <glyph glyph-name="jingweidu" unicode="&#59127;" d="M846.773088 707.42411c-6.851035 11.813047-18.700921 18.844184-31.692816 18.844184-7.353478 0-14.775518-2.213411-21.413706-6.424316-9.279341-5.78168-15.419178-14.918781-17.559934-25.625634-1.856277-10.100032 0-20.878516 5.424546-30.30112l0.429788-0.678452c36.259832-55.819307 55.390541-121.417327 55.390542-189.69334 0-68.632123-48.39522-169.242566-140.119271-290.945395-67.312058-89.439008-141.618415-169.063487-185.089486-213.604936-38.902008 40.828894-118.490671 125.415384-188.621938 218.887243-90.831728 121.025401-136.871297 217.138412-136.871297 285.663088 0 188.372252 145.936767 341.625658 325.350996 341.625658 72.950476 0 145.615449-26.839275 204.433042-75.555813 6.567579-6.566556 15.3455-10.171664 24.838711-10.171664 11.849886 0 22.984481 5.567809 29.623692 14.918781 5.496178 7.744381 8.42181 18.095124 7.922436 28.409027-0.427742 11.528568-5.210675 21.664416-12.919241 27.802206C690.450786 862.782457 602.652138 895.653099 511.999488 895.653099c-221.671659 0-402.013003-189.372022-402.013003-422.106643 0-193.832613 258.538311-472.822722 369.677551-583.78186 2.605338-2.606361 4.675486-4.675486 5.424546-5.461386 7.78122-8.137331 16.310477-11.95631 26.909883-11.956309 10.564613 0 19.130709 3.817955 26.909883 11.992125l5.426593 5.42557C655.474181 0.723733 914.013515 279.713842 914.013515 473.546456c0 83.479273-22.627347 162.175613-67.240427 233.877654z m-334.7736-75.128071c-46.004777 0-89.081874-18.630313-121.30988-52.464909-32.228005-33.834596-49.965995-79.053474-49.965995-127.378085 0-48.288796 17.73799-93.508697 49.965995-127.34227s75.306126-52.464909 121.30988-52.464909c46.004777 0 89.083921 18.630313 121.276111 52.464909s49.965995 79.053474 49.965995 127.34227c0 48.324612-17.773805 93.54349-49.965995 127.378085-32.19219 33.834596-75.271334 52.464909-121.276111 52.464909z m0-279.168164c-53.035914 0-94.613868 43.649126-94.613867 99.32517 0 55.711859 41.578977 99.360985 94.613867 99.360985 53.035914 0 94.649684-43.649126 94.649684-99.360985 0.001023-55.676044-41.61377-99.32517-94.649684-99.32517z"  horiz-adv-x="1024" />

    
    <glyph glyph-name="tianbaoren" unicode="&#59128;" d="M511.999488-127.653099c-266.747273 0-402.013003 68.454068-402.013003 203.433272 0 96.43433 139.369188 159.463852 278.311657 180.805926V276.643923C304.8905 343.171106 264.31027 459.306126 264.31027 630.61884 264.31027 796.505985 355.355869 895.654123 507.895007 895.654123h8.173147c152.682401 0 243.691161-99.147114 243.691161-265.035283 0-64.456011 0-255.612679-123.05871-354.188788l-0.427742-19.914562c138.691759-21.485337 277.739629-84.514859 277.739629-180.735317 0.001023-134.979204-135.26573-203.433272-402.013004-203.433272z m-4.175089 959.349561c-84.014462 0-184.088692-34.19173-184.088692-197.36609 0-156.821675 36.154431-258.038938 110.460788-309.146942 9.386788-6.495948 15.132652-18.130939 15.132652-30.693046v-71.666227c0.357134-17.987676-11.813047-33.405831-28.195156-35.68985-152.539138-17.34504-253.720585-81.301677-253.720585-115.992781 0-111.424742 187.40932-134.837988 344.588129-134.837988 157.251464 0 344.623945 23.413246 344.623945 134.837988 0 34.69008-101.217263 98.718349-253.758448 115.992781-16.630772 2.427282-28.836769 18.201547-28.195156 36.475749l1.428536 71.665203c0.14224 12.063757 5.710049 23.269983 14.989389 29.909194C665.610028 376.505305 700.300109 474.724281 700.300109 634.330372c0 163.17436-100.145861 197.36609-184.1593 197.36609h-8.31641z m0 0"  horiz-adv-x="1024" />

    
    <glyph glyph-name="lianxifangshi" unicode="&#59129;" d="M943.522596 0.500653l-53.44626-58.368363c-40.600697-44.382836-97.257068-69.78539-155.268296-69.785389-24.759917 0-49.306986 4.495384-72.712045 13.414521C372.393917-3.709229 142.87964 250.387933 48.19107 565.349301c-28.470425 94.688569 1.711991 198.86728 75.06565 259.162528l46.77328 38.45994C195.967742 884.307703 227.043505 895.653099 259.867074 895.653099c55.764048 0 106.319467-33.322943 131.86426-86.910419l79.06166-165.615968c7.492648-15.769149 11.452843-33.394574 11.452843-51.018977 0-28.114314-9.704013-54.943356-27.293623-75.636654l-16.482393-19.337418c-16.340153-19.123546-19.908422-47.52234-8.812713-70.713528 26.972305-56.370869 68.928882-101.609189 121.303741-130.723273 21.085224-11.774161 48.200792-7.77815 65.611323 9.490141l17.981537 17.696034c31.182186 30.968315 79.774905 38.102806 117.449969 17.196661l153.699567-85.126796c49.805336-27.614941 80.70202-82.058924 80.70202-142.211932 0.001023-42.240033-15.198144-82.128509-42.882669-112.240317z m-26.116821 127.58377c0 52.588729-207.215412 146.20692-207.215412 146.206919-29.042453 11.274788-69.001537-36.534078-69.001537-36.534077-71.996754-56.441477-122.767068-13.628392-138.107451 0-44.953841 39.816844-106.069781 125.800147-138.108475 182.740997-23.940249 42.670845-13.700023 93.190449 0 109.601211 0 0 46.416146 42.456974 34.536585 73.139787-36.21276 95.116311-92.725868 236.042971-138.108475 219.275075-39.352263-13.771655-204.183356-71.569012-129.61708-283.06696 132.221394-374.828874 407.40378-525.745049 574.909796-594.033342 116.809379-9.131985 219.98832 146.992819 210.712049 182.67039z m0 0"  horiz-adv-x="1024" />

    
    <glyph glyph-name="paicha" unicode="&#59130;" d="M943.670975 667.321764H755.736699v60.813041c0 39.460734-35.900651 71.552639-79.981613 71.552639H348.27459c-44.143383 0-80.012312-32.091906-80.012312-71.552639v-60.813041H80.328002c-44.110637 0-79.980589-32.123628-79.98059-71.552639v-555.935652c0-39.429011 35.869952-71.52194 79.98059-71.52194h863.343996c44.143383 0 79.981612 32.091906 79.981613 71.52194V595.769125c-0.001023 39.429011-35.839253 71.552639-79.982636 71.552639z m-545.197076 15.702633h227.081878v-15.702633h-227.081878v15.702633z m494.935346-598.079494H130.55801V550.69044h762.851235v-465.745537z m-446.546266 68.647473h130.274042V259.486148h119.098515V376.149195H577.137021v105.891725H446.862979v-105.891725H327.796186v-116.663047h119.066793v-105.893772z"  horiz-adv-x="1024" />

    
    </font>
</defs>
</svg>
