<?xml version="1.0" standalone="no"?>
<!DOCTYPE svg PUBLIC "-//W3C//DTD SVG 1.1//EN" "http://www.w3.org/Graphics/SVG/1.1/DTD/svg11.dtd" >
<!--
2013-9-30: Created.
-->
<svg>
<metadata>
Created by iconfont
</metadata>
<defs>

<font id="iconfont" horiz-adv-x="1024" >
  <font-face
    font-family="iconfont"
    font-weight="500"
    font-stretch="normal"
    units-per-em="1024"
    ascent="896"
    descent="-128"
  />
    <missing-glyph />
    
    <glyph glyph-name="bianji" unicode="&#59881;" d="M1007.620449 467.058694c0.239454-4.060479 0 0 0 0l-1.023306-494.163773c0-39.477107-19.698644-82.331123-82.3301-82.331123H100.962971c-49.110511-2.696412-82.331123 40.280402-82.331123 82.331123V713.866846c0 47.196928 32.562627 82.3301 82.331123 82.3301l493.900783-0.803295v-81.526805H100.962971c-1.688455 0 0-36.823674 0-82.289168v-658.68378c1.543146-1.62808 36.903491 0.038886 82.331124 0.038886l740.973971-0.038886V466.916455M507.067152 75.202005c-11.336186-20.459984-36.501332-27.455305-56.199976-15.636119-19.698644 11.82021-26.452465 37.94931-15.034415 58.410318L847.485309 858.588949C858.821495 879.050979 883.985618 886.046301 903.684262 874.268046c19.698644-11.82021 26.453489-37.990243 15.034415-58.452273L507.067152 75.202005z"  horiz-adv-x="1024" />

    
    <glyph glyph-name="jiantou" unicode="&#59895;" d="M458.39257-119.81355h105.818047V-13.995503H458.39257v-105.818047zM246.757498 197.640592V91.821521h105.818048V197.640592H246.757498z m317.453119-211.636095h105.818048V91.821521H564.210617v-105.817024z m105.819071 211.636095V91.821521h105.817024V197.640592H670.029688zM352.574522 91.821521v-105.817024h105.818048V91.821521H352.574522zM564.210617 885.456876H458.39257V779.638829h105.818047V885.456876z m0-370.363166H458.39257v-105.818047h105.818047V515.09371z"  horiz-adv-x="1024" />

    
    <glyph glyph-name="xialasanjiaoxia" unicode="&#59928;" d="M514.231319 128.656451L13.081435 629.805312h1002.298745L514.231319 128.656451z"  horiz-adv-x="1024" />

    
    <glyph glyph-name="xialasanjiaozuo" unicode="&#59929;" d="M764.806261 379.231393L263.656377-121.918491V880.380254l501.149884-501.148861z"  horiz-adv-x="1024" />

    
    <glyph glyph-name="morentupian" unicode="&#59939;" d="M19.046287 0.047328l241.467517 264.012999L640.714012-90.55211l-585.966619 0.610914s-35.982516 18.059308-35.010375 55.900148l-0.690731 34.088376zM274.024515-91.368708l468.956672 513.180895 262.579347-216.105896 1.842974-239.314481s-10.356882-58.740846-56.661487-55.04978l-676.717506-2.710738zM118.127909 858.27684c-49.90255 0.708128-79.57843-22.827915-80.898495-80.899518v-785.616728c1.320065-41.470507 44.298925-83.426061 80.898495-80.893378H903.746684c52.708456-1.5104 80.891332 36.220946 80.891331 80.893378V777.376299c0.981351 38.118156-36.219923 80.899518-80.891331 80.899518H118.127909zM142.406872 887.927137h737.061872c88.242763 1.757017 136.338155-35.082006 134.828778-134.828778v-737.059825c1.5104-103.611799-35.328623-134.310985-134.828778-134.828778H142.406872c-98.740862 0.517793-134.896316 40.481993-134.827755 134.828778V753.098359C5.803681 854.891743 42.642704 889.684154 142.406872 887.927137z m0 0M288.533974 641.376858m-71.251787 0a71.251787 71.251787 0 1 1 142.503574 0 71.251787 71.251787 0 1 1-142.503574 0Z"  horiz-adv-x="1024" />

    
    <glyph glyph-name="ditu-dingweidangqianweizhi" unicode="&#60172;" d="M971.370851 346.834542h-42.090631C910.703119 144.801153 751.028467-14.956388 548.76995-33.471067v-42.296315c0-21.219277-17.202801-38.412868-38.412868-38.412868-21.219277 0-38.423101 17.192567-38.423101 38.412868v42.296315C269.685697-14.946155 109.999788 144.801153 91.423711 346.834542H49.33308c-21.219277 0-38.412868 17.202801-38.412868 38.412868 0 21.22951 17.192567 38.423101 38.412868 38.423101h42.090631C109.999788 625.702877 269.685697 785.460418 471.933981 803.98533V846.271412c0 21.219277 17.202801 38.412868 38.423101 38.412868 21.209044 0 38.412868-17.192567 38.412868-38.412868v-42.286082c202.248284-18.524912 361.933169-178.272219 380.51027-380.314819h42.090631c21.219277 0 38.423101-17.192567 38.423101-38.423101 0-21.210068-17.203824-38.412868-38.423101-38.412868z m-153.670916 76.835969h34.795481C834.534346 583.325721 708.640054 709.229223 548.76995 727.140151v-34.539654c0-21.219277-17.202801-38.423101-38.412868-38.423101-21.219277 0-38.423101 17.202801-38.423101 38.423101v34.539654C312.063877 709.229223 186.179818 583.325721 168.218748 423.670511h34.785247c21.219277 0 38.423101-17.192567 38.423101-38.423101 0-21.209044-17.202801-38.412868-38.423101-38.412868h-34.785247c17.950837-159.65521 143.845129-285.559735 303.715233-303.469639V77.904557c0 21.219277 17.202801 38.423101 38.423101 38.423101 21.209044 0 38.412868-17.202801 38.412868-38.423101v-34.539654c159.870104 17.909905 285.764396 143.81443 303.725466 303.469639h-34.795481c-21.219277 0-38.423101 17.202801-38.423101 38.412868 0 21.22951 17.202801 38.423101 38.423101 38.423101zM510.357082 193.163627c-106.0882 0-192.094016 86.005816-192.094016 192.083783 0 106.098433 86.005816 192.094016 192.094016 192.094017s192.083783-85.995583 192.083783-192.094017c0-106.077967-85.995583-192.083783-192.083783-192.083783z"  horiz-adv-x="1024" />

    
    <glyph glyph-name="ditu-suoxiao" unicode="&#60174;" d="M110.435717 464.721463h780.273022c43.086307 0 78.026074-34.939767 78.026075-78.026074 0-43.096541-34.939767-78.026074-78.026075-78.026075H110.435717c-43.096541 0-78.026074 34.929534-78.026075 78.026075 0 43.086307 34.92851 78.026074 78.026075 78.026074z"  horiz-adv-x="1024" />

    
    <glyph glyph-name="ditu-fangda" unicode="&#60175;" d="M913.615449 300.201455H594.89036v-318.713832c0-43.999097-35.669384-79.678714-79.678713-79.678713-43.999097 0-79.678714 35.679617-79.678714 79.678713V300.201455H116.820124c-44.00933 0-79.678714 35.679617-79.678714 79.688947 0 43.999097 35.668361 79.678714 79.678714 79.678714h318.713832V778.282948c0 44.00933 35.679617 79.678714 79.678714 79.678714 44.00933 0 79.678714-35.668361 79.678714-79.678714v-318.713832h318.725088c43.999097 0 79.678714-35.679617 79.678714-79.678714-0.001023-44.00933-35.680641-79.688947-79.679737-79.688947z"  horiz-adv-x="1024" />

    
    <glyph glyph-name="tupianshanchu" unicode="&#60212;" d="M512.621659 890.845607c-280.287661 0-507.413542-227.125881-507.413542-507.260046 0-280.053324 227.126904-507.492336 507.413542-507.492336 280.137235 0 507.263116 227.439012 507.263115 507.492336 0 280.134165-227.125881 507.260046-507.263115 507.260046z m316.940442-570.805314H195.528744V446.974263h634.033357v-126.93397z"  horiz-adv-x="1024" />

    
    <glyph glyph-name="check-square" unicode="&#60461;" d="M868.496 800.224H155.272a59.424 59.424 0 0 1-59.424-59.424v-713.232a59.424 59.424 0 0 1 59.424-59.424h713.232a59.424 59.424 0 0 1 59.424 59.424V740.792a59.432 59.432 0 0 1-59.432 59.432m3.952-746.904a29.712 29.712 0 0 0-29.712-29.712H181.024a29.712 29.712 0 0 0-29.712 29.712V715.04a29.712 29.712 0 0 0 29.712 29.712h661.712a29.712 29.712 0 0 0 29.712-29.712v-661.72zM712.512 515.872L457.352 259.376 312.8 403.92a28.856 28.856 0 1 1-40.816-40.816l163.288-163.28c0.344-0.344 0.744-0.576 1.096-0.904l0.128-0.152a27.784 27.784 0 0 1 39.432 0l276.016 277.464a28.152 28.152 0 0 1 0 39.64 27.8 27.8 0 0 1-39.432 0"  horiz-adv-x="1024" />

    
    <glyph glyph-name="data" unicode="&#60476;" d="M659.296 443.608H304a29.72 29.72 0 0 1-29.568-32.64c1.472-15.456 15.328-26.8 30.848-26.8h355.288a29.728 29.728 0 0 1 29.584 32.64c-1.48 15.456-15.336 26.8-30.856 26.8m149.848 356.568H214.856a59.432 59.432 0 0 1-59.432-59.432v-713.136a59.44 59.44 0 0 1 59.44-59.432h594.272a59.432 59.432 0 0 1 59.432 59.432V740.744a59.424 59.424 0 0 1-59.424 59.432m0-742.848a29.72 29.72 0 0 0-29.72-29.72H244.584a29.72 29.72 0 0 0-29.72 29.72V711.032a29.712 29.712 0 0 0 29.72 29.72h534.84a29.72 29.72 0 0 0 29.72-29.72v-653.704zM718.72 621.896H304a29.72 29.72 0 0 1-29.568-32.64c1.472-15.448 15.328-26.8 30.848-26.8H720a29.72 29.72 0 0 1 29.576 32.64c-1.472 15.456-15.336 26.8-30.856 26.8M540.44 265.32H304a29.712 29.712 0 0 1-29.568-32.632c1.472-15.456 15.328-26.8 30.848-26.8h236.44a29.72 29.72 0 0 1 29.576 32.64c-1.472 15.456-15.336 26.792-30.856 26.792"  horiz-adv-x="1024" />

    
    <glyph glyph-name="date" unicode="&#60479;" d="M660.304 325.016h58.16c15.52 0 29.376 11.352 30.848 26.808a29.72 29.72 0 0 1-29.576 32.616h-58.152c-15.52 0-29.384-11.344-30.856-26.8a29.72 29.72 0 0 1 29.576-32.624m-178.288 0h58.16c15.52 0 29.376 11.352 30.84 26.808a29.72 29.72 0 0 1-29.584 32.624h-58.144c-15.52 0-29.376-11.344-30.856-26.792a29.736 29.736 0 0 1 29.584-32.64m386.288 416.008H749.44v28.432c0 15.52-11.336 29.376-26.784 30.848a29.712 29.712 0 0 1-32.648-29.568v-29.712h-356.56v28.432c0 15.52-11.344 29.376-26.792 30.848a29.712 29.712 0 0 1-32.64-29.568v-29.712H155.16a59.424 59.424 0 0 1-59.424-59.432v-653.712a59.424 59.424 0 0 1 59.424-59.424h713.144a59.432 59.432 0 0 1 59.424 59.432V681.584a59.432 59.432 0 0 1-59.424 59.44m0-683.424a29.728 29.728 0 0 0-29.728-29.728H184.888a29.728 29.728 0 0 0-29.728 29.728V503.304h713.136V57.6z m0 505.136H155.168V651.864a29.72 29.72 0 0 0 29.728 29.728h89.128v-28.44c0-15.512 11.336-29.376 26.792-30.848a29.72 29.72 0 0 1 32.64 29.576v29.712h356.568v-28.44c0-15.512 11.336-29.376 26.8-30.848a29.72 29.72 0 0 1 32.632 29.576v29.712h89.136a29.72 29.72 0 0 0 29.728-29.728v-89.128z m-386.288-416h58.16c15.52 0 29.376 11.344 30.84 26.8a29.72 29.72 0 0 1-29.584 32.624h-58.144c-15.52 0-29.376-11.336-30.856-26.792a29.736 29.736 0 0 1 29.584-32.632m-178.28 0h58.16c15.52 0 29.376 11.344 30.84 26.8a29.712 29.712 0 0 1-29.568 32.624h-58.16c-15.52 0-29.384-11.336-30.856-26.792a29.72 29.72 0 0 1 29.584-32.632m0 178.28h58.16c15.52 0 29.376 11.352 30.84 26.808a29.712 29.712 0 0 1-29.568 32.616h-58.16c-15.512 0-29.384-11.344-30.856-26.8a29.728 29.728 0 0 1 29.584-32.624m356.568-178.28h58.16c15.52 0 29.376 11.344 30.848 26.8a29.72 29.72 0 0 1-29.576 32.624h-58.152c-15.52 0-29.384-11.336-30.856-26.792a29.72 29.72 0 0 1 29.576-32.632"  horiz-adv-x="1024" />

    
    <glyph glyph-name="double-left" unicode="&#60480;" d="M550.168 384.176l385.848 385.84a36.384 36.384 0 0 1-51.456 51.456L473.464 410.384c-0.168-0.16-0.36-0.264-0.528-0.432a36.272 36.272 0 0 1-10.648-25.776 36.272 36.272 0 0 1 10.648-25.776c0.176-0.176 0.384-0.288 0.56-0.456l411.056-411.064a36.384 36.384 0 0 1 51.456 51.448l-385.84 385.848z m-385.488 0l385.84 385.84a36.384 36.384 0 0 1-51.456 51.456L87.976 410.384c-0.168-0.16-0.36-0.264-0.528-0.432a36.28 36.28 0 0 1-10.656-25.776 36.24 36.24 0 0 1 10.656-25.776c0.176-0.176 0.384-0.288 0.56-0.456l411.048-411.064a36.384 36.384 0 0 1 51.456 51.448L164.68 384.176z"  horiz-adv-x="1024" />

    
    <glyph glyph-name="double-right" unicode="&#60481;" d="M87.456-1.672a36.376 36.376 0 1 1 51.456-51.448l411.056 411.064c0.176 0.168 0.384 0.28 0.56 0.456a36.272 36.272 0 0 1 10.648 25.776 36.272 36.272 0 0 1-10.648 25.776c-0.168 0.168-0.36 0.272-0.528 0.432L138.912 821.48a36.384 36.384 0 0 1-51.456-51.456l385.848-385.84-385.848-385.856z m385.488 0a36.376 36.376 0 1 1 51.456-51.448l411.048 411.064c0.176 0.168 0.384 0.288 0.56 0.456a36.28 36.28 0 0 1 10.656 25.776 36.24 36.24 0 0 1-10.656 25.776c-0.168 0.168-0.36 0.272-0.528 0.432L524.408 821.48a36.384 36.384 0 0 1-51.456-51.456l385.84-385.84-385.848-385.856z"  horiz-adv-x="1024" />

    
    <glyph glyph-name="down" unicode="&#60482;" d="M950.152 628.984c-12.736 13.52-33.392 13.52-46.128 0L511.736 212.688 119.448 628.984c-12.736 13.52-33.4 13.52-46.136 0-12.744-13.52-12.744-35.44 0-48.96l415.24-440.656a31.6 31.6 0 0 1 23.176-10.136 31.544 31.544 0 0 1 23.184 10.136l415.232 440.656c12.752 13.52 12.752 35.44 0.008 48.96z"  horiz-adv-x="1024" />

    
    <glyph glyph-name="edit1" unicode="&#60488;" d="M608.576 740.648H185.096a29.744 29.744 0 0 1-29.744-29.744v-653.44a29.744 29.744 0 0 1 29.744-29.744h653.448a29.744 29.744 0 0 1 29.744 29.744V491.952l59.488 64.472c0.176 0-0.08-71.736-0.08-71.904v-456.48a59.744 59.744 0 0 0-59.736-59.752H155.664a59.752 59.752 0 0 0-59.744 59.752V740.32a59.736 59.736 0 0 0 59.744 59.736h512.408M918.952 670.128l-95.04-94.856a7.44 7.44 0 0 0-10.512 0L702.544 685.92a7.44 7.44 0 0 0 0 10.52l95.104 94.928a29.776 29.776 0 0 0 42.032 0l79.28-79.128a29.752 29.752 0 0 0-0.008-42.112M376.576 353.048l102.808-102.616a7.44 7.44 0 0 0-3.456-12.48L350.928 206.8c-10.896-2.712-20.752 7.152-18.024 18.04l31.208 124.736a7.44 7.44 0 0 0 12.464 3.472M783.04 534.472L518.784 270.928a7.44 7.44 0 0 0-10.504 0l-110.88 110.648a7.44 7.44 0 0 0 0 10.52l264.256 263.56a7.432 7.432 0 0 0 10.512 0L783.04 545.008a7.44 7.44 0 0 0 0-10.536"  horiz-adv-x="1024" />

    
    <glyph glyph-name="left" unicode="&#60503;" d="M756.536 822.416c13.52-12.736 13.52-33.392 0-46.128L340.24 384l416.296-392.28c13.52-12.736 13.52-33.4 0-46.136-13.52-12.744-35.44-12.744-48.96 0L266.92 360.824A31.6 31.6 0 0 0 256.784 384a31.544 31.544 0 0 0 10.136 23.184L707.576 822.416c13.52 12.744 35.44 12.744 48.96 0z"  horiz-adv-x="1024" />

    
    <glyph glyph-name="menu-unfold" unicode="&#60506;" d="M64 720.208a32 32 0 0 1 32-32h832a32 32 0 0 1 0 64H96a32 32 0 0 1-32-32zM64 54.08a32 32 0 0 1 32-32h832a32 32 0 0 1 0 64H96a32 32 0 0 1-32-32zM64 389.984a32 32 0 0 1 32-32h512a32 32 0 0 1 0 64H96a32 32 0 0 1-32-32zM772 272.2l180 103.92c10.664 6.16 10.664 21.552 0 27.712L772 507.76c-10.664 6.16-24-1.536-24-13.856v-207.848c0-12.312 13.336-20.016 24-13.856z"  horiz-adv-x="1024" />

    
    <glyph glyph-name="menu-fold" unicode="&#60507;" d="M960 720.208a32 32 0 0 0-32-32H96a32 32 0 0 0 0 64h832a32 32 0 0 0 32-32zM960 54.08a32 32 0 0 0-32-32H96a32 32 0 0 0 0 64h832a32 32 0 0 0 32-32zM960 389.984a32 32 0 0 0-32-32H416a32 32 0 0 0 0 64h512a32 32 0 0 0 32-32zM252 272.2L72 376.12c-10.664 6.16-10.664 21.552 0 27.712l180 103.92c10.664 6.16 24-1.536 24-13.856v-207.848c0-12.304-13.336-20.008-24-13.848z"  horiz-adv-x="1024" />

    
    <glyph glyph-name="right" unicode="&#60531;" d="M266.928 822.592c-13.52-12.736-13.52-33.392 0-46.128l416.296-392.288-416.296-392.28c-13.52-12.736-13.52-33.4 0-46.136 13.52-12.744 35.44-12.744 48.96 0l440.656 415.24a31.6 31.6 0 0 1 10.136 23.176 31.544 31.544 0 0 1-10.136 23.184L315.888 822.592c-13.52 12.744-35.44 12.744-48.96 0z"  horiz-adv-x="1024" />

    
    <glyph glyph-name="search" unicode="&#60536;" d="M950.592-10.472L684.976 255.144a349.744 349.744 0 0 1 81.328 224.704c0 193.96-157.232 351.2-351.192 351.2s-351.2-157.232-351.2-351.2c0-193.96 157.232-351.2 351.2-351.2 86.456 0 165.56 31.296 226.744 83.104l265.48-265.48a30.592 30.592 0 0 1 43.256 43.256zM415.112 192.504c-158.696 0-287.344 128.656-287.344 287.344 0 158.696 128.648 287.344 287.344 287.344 158.688 0 287.336-128.648 287.336-287.344 0-158.688-128.648-287.344-287.336-287.344z"  horiz-adv-x="1024" />

    
    <glyph glyph-name="up" unicode="&#60543;" d="M950.152 139.376c-12.736-13.52-33.392-13.52-46.128 0L511.736 555.664 119.448 139.376c-12.736-13.52-33.4-13.52-46.136 0-12.744 13.52-12.744 35.44 0 48.96l415.24 440.656a31.6 31.6 0 0 0 23.176 10.136 31.544 31.544 0 0 0 23.184-10.136l415.232-440.656c12.752-13.52 12.752-35.44 0.008-48.96z"  horiz-adv-x="1024" />

    
    <glyph glyph-name="zhuanxiangbanqueren" unicode="&#58894;" d="M1009.171782 596.872249c-5.831822 6.208399-13.582343 9.608845-21.847588 9.608845-8.244778 0-15.995299-3.400446-21.828144-9.608845l-297.679773-315.67359-163.985842 173.910889c-5.832845 6.16849-13.583366 9.56996-21.808702 9.569959s-15.95539-3.400446-21.768792-9.569959c-5.832845-6.129604-9.035794-14.353916-9.035794-23.092951s3.202948-16.924461 9.055236-23.092951l185.714726-197.00384 0.61296-0.751106c5.754051-5.773494 13.267165-9.016351 21.313422-9.016351v0.038885h0.039909c7.987928 0 15.501042 3.164063 21.255093 8.976442 0.178055 0.236384 0.396019 0.474814 0.61296 0.751107l319.350329 338.607928c12.041244 12.812817 12.041244 33.57263 0 46.345538z m-314.644144-70.783113s-0.005117 0.119727 0 0z m40.492227-404.92124c-14.690584 0-41.554418-9.708106-40.716331-35.154661l0.224104-5.337565v-40.492226h-607.383394v647.87562 40.492226H694.526615v-202.461131c0.984421-22.193465 15.993253-39.930431 40.492226-40.492226 21.898753-0.502443 40.491203 12.158924 40.491203 40.492226v202.461131c0 42.429345-5.298679 81.063247-51.683103 81.063247H67.452763c-33.789571 0-61.291948-29.025057-61.291948-64.692394v-721.148438c0-35.667338 27.502377-64.693418 61.291948-64.693417H723.828988c33.810037 0 51.683103 4.942569 51.683103 40.611953v80.984452c-1.798972 35.072797-25.801642 40.491203-40.492226 40.491203z m-161.968906 445.414489h-445.414489v-40.492226h445.414489v40.492226z m-445.414489-242.953357h283.445584v0.679475 39.811727h-283.445584v-40.491202z"  horiz-adv-x="1024" />

    
    <glyph glyph-name="paichaxiangqing" unicode="&#58895;" d="M940.742273 636.66044c7.565303-6.783497 11.79872-16.012695 11.79872-25.613354v-697.218422c0-19.980054-17.966187-36.07666-40.165791-36.07666H108.882338c-22.159696 0-40.124859 16.095583-40.12486 36.07666V851.73689c0 19.980054 17.966187 36.075637 40.12486 36.075637H663.893944c10.483772 0.040932 20.638039-3.741207 28.368094-10.627035L940.742273 636.742305v-0.081865z m-72.233138-43.332924l-210.535017 222.333738 0.040932-222.333738h210.494085z m0-631.480208V509.130905H615.917256c-30.484292 0-42.098817 15.417131-42.098817 42.098817V803.821601H152.831292v-841.974293h715.677843z m-336.790536 252.592902v-84.197634H237.028926v84.197634h294.689673zM237.027903 382.834454s20.494777-0.061398 26.167986-0.061398h494.92716c5.67321 0 26.188452 0.061398 26.188452 0.061398v-84.197634H237.027903v84.197634z m0 0"  horiz-adv-x="1024" />

    
    <glyph glyph-name="dianziditu" unicode="&#58896;" d="M1015.672846-76.153168l-87.716784 325.466629c-9.887184 15.736403-19.773346 20.98187-29.771047 20.981871H828.758806c-19.882839 0-29.770024-15.736403-29.770024-31.499412 0-20.98187 14.829753-31.472805 29.770024-31.472805h49.599651l57.94676-262.46576H87.582219l57.892525 262.46576h54.597479c19.883863 0 29.770024 15.736403 29.770024 31.472805 0 21.008476-14.830777 31.499411-29.770024 31.499412h-74.42506c-9.94142 0-19.828604-5.245468-29.770024-20.981871L8.159332-76.153168c-8.138354-27.409257 12.098549-48.64286 34.768875-47.235814h947.91923c21.37789-0.639566 31.994692 26.989701 24.825409 47.235814zM491.915058 102.824109c4.943592-4.942569 9.886161-9.886161 19.82758-9.886161 9.942443 0 14.886035 4.943592 19.829628 9.886161 4.997827 4.943592 292.866141 301.628712 292.866141 469.730291 0 173.072801-138.962935 316.457442-312.695769 316.457442-173.730787 0-312.694745-138.442072-312.694744-316.457442 0-168.101579 287.868313-469.730291 292.867164-469.730291z m19.82758 721.925127c138.964982 0 253.101485-113.752764 253.101486-252.194836 0-93.951789-133.965108-276.884145-253.101486-405.439032-114.136503 133.499503-253.100462 311.488267-253.100461 405.440055 0 138.441049 114.137527 252.193813 253.100461 252.193813zM685.475472 587.385177c0 93.951789-74.480318 168.129208-168.735006 168.129208-94.363158 0-173.73181-74.17742-173.73181-168.129208 0-93.924159 74.42506-168.101579 168.732959-168.101579 94.309946-0.001023 173.733856 74.17742 173.733857 168.101579z m-282.870486 0c0 59.347666 49.598628 108.781542 109.137652 108.781542 59.595306 0 109.193935-49.433876 109.193935-108.781542 0-59.320037-49.598628-108.781542-109.193935-108.781542-59.540048 0-109.137653 49.461505-109.137652 108.781542z"  horiz-adv-x="1024" />

    
    <glyph glyph-name="liucheng" unicode="&#58897;" d="M944.775122 238.614795h-72.097038V454.910003H547.445792v72.098062h181.035146c39.781028 0 72.098062 32.282241 72.098061 72.099084V743.302249c0 39.815821-32.317033 72.098062-72.098061 72.098062H295.891546c-39.780005 0-72.098062-32.282241-72.098062-72.098062v-144.196123c0-39.815821 32.318056-72.099085 72.098062-72.099085h179.456184v-72.098061H151.695423V238.614795H79.597361c-39.781028 0-72.099085-32.281217-72.099085-72.097038v-144.196123c0-39.815821 32.318056-72.099085 72.099085-72.099085h288.392246c39.781028 0 72.098062 32.283264 72.098062 72.099085V166.517757c0 39.815821-32.317033 72.097038-72.098062 72.097038H223.793484V382.811942h576.784492V238.614795h-144.194076c-39.782052 0-72.099085-32.281217-72.099085-72.097038v-144.196123c0-39.815821 32.317033-72.099085 72.099085-72.099085h288.391222c39.780005 0 72.098062 32.283264 72.098062 72.099085V166.517757c0 39.815821-32.318056 72.097038-72.098062 72.097038zM296.358173 599.106126s-0.467651 32.282241-0.467651 72.098062 0.467651 72.098062 0.467651 72.098061H728.01431a5583.209784 5583.209784 0 0 1 0-144.196123H296.358173z m71.164806-432.588369a5558.780395 5558.780395 0 0 1 0-144.196123H80.063989s-0.466628 32.282241-0.466628 72.098061 0.466628 72.098062 0.466628 72.098062h287.45899z m576.786539-144.197146H656.849504s-0.465604 32.282241-0.465604 72.098061 0.465604 72.098062 0.465604 72.098062h287.460014s0.465604-32.282241 0.465604-72.098062-0.465604-72.098062-0.465604-72.098061z"  horiz-adv-x="1024" />

    
    <glyph glyph-name="chaxunjieguo" unicode="&#58898;" d="M656.799362 888.96477H367.570052v-72.307839h289.22931V888.96477z m216.922495 0h-72.30784v-72.307839C946.033789 820.098309 946.033789 803.72541 946.028673 672.042275v-578.459644c0.314155-131.013893-13.110599-144.614655-144.614656-144.614655H222.954373c-129.146359 0-144.614655 15.647375-144.614655 144.614655V672.042275c0 123.497709 5.235235 144.614655 144.614655 144.614656V888.96477h-72.307839c-79.862909 0-144.614655-64.751746-144.614656-144.614655V21.274792c0-79.862909 64.751746-144.614655 144.614656-144.614656h733.308385c79.863932 0 134.381593 61.681828 134.381593 141.544737V744.350115c0.001023 79.862909-64.750723 144.614655-144.614655 144.614655zM260.591575 292.781462c66.728774-1.060145 116.934223-79.6869 168.411641-116.795053 20.47738-14.758122 43.920302-7.590885 59.102073 10.94426 28.385491 34.672684 56.490595 69.201082 85.018325 103.237269 58.395992 68.352761 143.55451 163.221432 211.768101 222.713384 46.391587 40.461527-14.475689 116.158556-60.516282 74.989925-44.063565-39.330774-110.862947-108.249423-151.252842-152.028508-44.13315-49.747008-85.865623-101.858876-124.984573-155.878187l-4.519943-5.331425-5.79089 4.942569c-51.688219 44.627407-98.151437 98.258884-169.541371 99.388614-52.815903 0.811482-60.795645-85.37239-7.694239-86.182848z"  horiz-adv-x="1024" />

    
    <glyph glyph-name="paiwukoupaicha" unicode="&#58899;" d="M175.453523 523.627061H7.08793v-56.122205h168.365593v56.122205z m673.463391-336.731184H680.551322v76.029604c34.921347 39.572274 56.122205 91.537809 56.122205 148.458193 0 123.972523-100.516298 224.487797-224.487797 224.487797-123.972523 0-224.487797-100.515275-224.487797-224.487797 0-56.920384 21.200858-108.885919 56.122205-148.458193v-76.029604H175.453523V355.261469H7.08793v-56.122205H119.331317v-112.244411H7.08793v-56.122205h280.610003v-112.24441H7.08793v-56.122205h336.732208v-56.122205h336.732208v56.122205h336.732207v56.122205h-280.611026V130.773671h280.610003v56.122206H905.039119V299.139264h112.244411V355.261469H848.916914v-168.365592zM670.954757 355.261469H353.41568c-6.207375 17.556864-9.595542 36.444027-9.595542 56.122205 0 93.007277 75.359338 168.365592 168.365592 168.365592s168.365592-75.359338 168.365592-168.365592c0-19.678178-3.38919-38.565341-9.596565-56.122205z m346.327749 448.975594V860.359268H7.08793V804.237063h224.487798v-112.24441H7.08793v-56.122205h336.732208v56.122205h-56.122205V804.237063h392.853389v-168.365592h168.365592v-168.365592h168.365592v56.122205H905.039119V635.871471h112.244411v56.122205H736.673527V804.237063h280.608979z"  horiz-adv-x="1024" />

    
    <glyph glyph-name="shenqingxiaohao" unicode="&#58900;" d="M26.989189-101.180168c-1.403976-14.613836 12.137435-25.204032 25.100678-19.361976 15.522532 7.058766 161.542186 73.505108 229.371015 104.30253L54.566268 158.038642c-8.54563-78.624708-26.297946-246.338455-27.577079-259.21881z m619.829868 226.233558c0-19.960611 15.522532-36.143175 34.761711-36.143175h277.754978c19.156292 0 34.678824 16.182564 34.678824 36.143175 0 19.836791-15.522532 36.019355-34.678824 36.019355h-277.837866c-19.156292 0.12382-34.678824-16.058744-34.678823-36.019355z m145.235802 542.919197c16.390295 22.994714 11.601222 55.484685-10.485819 72.514547L601.160157 878.869854c-22.210861 17.029862-53.420677 12.034081-69.646219-10.960632l-14.696724-20.930705 260.539898-199.956078 14.697747 20.950148zM496.134149 817.770288L76.611354 224.856443 337.193207 24.775522l419.399999 592.913845L496.134149 817.770288zM358.783944 160.597931c-9.784854-14.118556-28.609595-17.296945-42.068117-7.18361-13.375635 10.093892-16.555048 29.806863-6.770194 43.801599l282.297434 407.943062c9.825786 14.118556 28.650527 17.277502 42.067095 7.18361s16.555048-29.827329 6.770194-43.823088L358.783944 160.597931z m604.762707-211.535811H408.448064c-19.155269 0-34.6778-16.182564-34.6778-36.123732 0-19.960611 15.522532-36.163641 34.6778-36.163641h555.098587c19.156292 0 34.678824 16.20303 34.678824 36.163641 0.122797 19.940145-15.441691 36.123732-34.678824 36.123732z m0 0"  horiz-adv-x="1024" />

    
    <glyph glyph-name="tongjibaobiao" unicode="&#58901;" d="M740.754472 887.989559H62.999334v-1010.355235h898.373815V677.5098c0.001023 0-210.752981 210.479759-220.618677 210.479759z m108.089788-168.384012h-56.128345v56.128345l56.128345-56.128345z m56.127321-785.788643H119.182938V831.861214h617.405655v-168.382988h168.384012v-729.661322h-0.001024zM624.331903 495.094214H175.31026v56.128345h449.021643v-56.128345z m224.512357-224.51031H175.31026v56.128345h673.534v-56.128345z"  horiz-adv-x="1024" />

    
    <glyph glyph-name="richangguanli" unicode="&#58902;" d="M679.724491 826.651562H344.292905v-55.905264H679.724491V826.651562z m112.028492-102.748129l-0.217964 158.653393s-13.211906 0.054235-26.587541 0.054236h-29.163204s-0.208754-42.529629-0.208754-55.9595V714.841034h55.960523c-0.001023 0 0.215918 7.789407 0.21694 9.062399z m167.660535-754.030335l-0.163729 800.8732c0.360204 34.259268-15.013949 55.905264-55.905265 55.905264h-55.905264v-55.905264h55.905264v-838.57794H120.672872c-1.747807-7.206122-1.910513 33.793664-1.910513 74.031087l1.910513 317.305762V770.746298c0-0.655939 0 0 55.851029 0h0.054235V826.651562h-55.905264c-38.489616 0-55.905264-31.828916-55.905264-55.905264l0.382716-798.826588c0-62.565964-6.770194-95.383394 55.850006-95.383394l782.345218-0.273222c62.6202 0 56.06797 31.04404 56.06797 93.610004zM232.482377 714.841034h55.905264V882.556826l-10.864442 0.054236-45.040822-0.054236s0.273223-13.375635 0.273223-26.75127v-131.901099l-0.273223-9.063423z m-55.904241-167.715793v-55.905264h447.242114v55.905264H176.578136z m0-279.525298h670.862147v55.905264H176.578136v-55.905264z"  horiz-adv-x="1024" />

    
    <glyph glyph-name="paiwukouzhengzhi" unicode="&#58903;" d="M399.452179 608.930889h225.438449v56.387241h-281.798061c-0.550539-4.100388 0.522909-53.305043 0-56.387241h56.359612z m-56.359612-169.07986h394.515239V496.211664h-394.515239v-56.360635z m619.953688-112.717178h-56.359613V665.317107L681.966555 890.534522H290.228569c-34.867112 0-59.854203-21.272489-59.854203-56.138578v-56.359613h-56.359612c-34.867112 0-56.359612-21.4925-56.359612-56.359612v-394.542868H61.29553c-34.867112 0-56.387241-35.774785-56.387242-70.669526v-316.967048c0-34.894741 28.509311-63.404052 63.404052-63.404052h887.74371c34.865065 0 63.403029 28.509311 63.403029 63.404052V256.464325c0.001023 34.894741-21.518083 70.669526-56.412824 70.669526zM737.608829 721.676719l56.359612-56.359612h-56.359612V721.676719zM286.733978 834.395944h394.515239v-169.078837c0-34.867112 21.491477-56.387241 56.358589-56.387241h112.718201v-281.797038H624.890628c0-69.678966-42.957371-112.719224-112.719224-112.719224-69.76083 0-112.719224 43.041282-112.719225 112.719224H286.733978V834.395944zM174.014754 665.317107V721.676719h56.359612v-394.542868h-56.359612V665.317107z m789.031501-676.339906v-56.358588H61.29553V214.413604c0 19.042705-0.550539 56.359612 0 56.359612h281.797037c25.345248-72.871681 83.46597-112.718201 169.078837-112.718201 85.611843 0 140.568503 39.84652 169.078836 112.718201H963.047278c0.522909-2.036379 0-37.316907 0-56.359612v-225.436403z m0 0"  horiz-adv-x="1024" />

    
    <glyph glyph-name="paiwukousuyuan" unicode="&#58904;" d="M872.183827 744.202759c-97.625458 95.255481-225.548966 147.704017-360.225271 147.704016-139.245368 0-267.089058-52.393277-360.057449-147.538241C56.589344 646.799358 4.114203 518.956691 4.114203 384.364297c0-139.164526 52.420907-266.924305 147.648758-359.811856 97.624435-95.310739 225.549989-147.759275 360.195595-147.759275 136.246057 0 263.289522 53.220109 357.801059 149.963477 5.671163 5.681396 9.252735 12.300141 10.762111 19.162432 3.100618 11.031241 0.899486 22.518876-8.419763 31.854499L597.326852 352.355279c-7.410783 7.383154-16.886599 11.458983-26.666336 11.458983-9.751085 0-19.2269-4.075829-26.664289-11.458983-7.410783-7.437389-11.514241-16.912182-11.514242-26.665313 0-9.751085 4.103458-19.227923 11.514242-26.665313L788.634969 54.555779c-77.854159-65.655326-174.764326-101.403504-276.677436-101.403504-114.39847 0-222.518956 45.066405-304.441781 126.933971-81.950454 81.867566-127.043465 189.960423-127.043464 304.277028 0 114.317629 45.12064 222.410486 127.043464 304.278051C289.438577 770.508891 397.559063 815.601902 511.957533 815.601902c114.428146 0 222.548632-45.093011 304.471456-126.960577 81.924871-81.867566 127.043465-189.960423 127.043465-304.278051 0-21.045315 17.10661-38.179554 38.180577-38.179555 21.045315 0 38.178531 17.134239 38.178531 38.179555 0 139.16555-52.445466 266.952958-147.647735 359.839485zM372.106368 524.575666c38.785352 36.305881 88.451518 56.304354 139.852188 56.304353 56.114019 0 105.943914-20.164249 140.29528-56.745398 36.361139-38.785352 56.388265-88.36863 56.388265-139.770324 0-21.045315 17.10661-38.179554 38.180577-38.179554 21.043269 0 38.178531 17.134239 38.178531 38.179554 0 73.329099-28.290323 141.974525-79.610152 193.32096-51.373041 51.263547-120.04712 79.526241-193.430454 79.526242-73.354682 0-142.055366-28.262694-193.375196-79.526242-51.346435-51.346435-79.636758-119.991862-79.636758-193.32096 0-73.328076 28.290323-141.974525 79.636758-193.265702 51.318806-51.291177 120.020514-79.609129 193.375196-79.609129 21.073968 0 38.180578 17.133216 38.180577 38.179554s-17.10661 38.179554-38.180577 38.179555c-53.824883 0-103.573937 20.053732-140.265604 56.746422-36.361139 38.784328-56.387241 88.36863-56.387242 139.7693 0 51.401694 20.026102 100.985995 56.387242 139.770324l0.411369 0.441045z"  horiz-adv-x="1024" />

    
    <glyph glyph-name="paiwukoujiance" unicode="&#58905;" d="M4.168438 835.225845l-0.055259-733.546815h1015.376599l0.054235 733.546815H4.168438z m958.911586-677.138085h-902.556067V778.595057h902.55709v-620.507297z m-733.326805-225.639016h564.096519v56.410777H229.753219v-56.410777z m282.187941 599.024005l169.090093-204.154703H850.258469v56.409755H724.138026l-212.438366 249.656013-211.2104-249.657037h-127.145795v-56.409754h169.229263l169.368432 204.155726z"  horiz-adv-x="1024" />

    
    <glyph glyph-name="shenheshenpi" unicode="&#58906;" d="M975.216435 45.960007h-42.10291l-94.77248 126.800941c37.250392 11.882632 64.0999 43.767829 64.0999 81.533968 0 47.859008-42.883693 86.794785-95.594195 86.794785-52.711526 0-95.595218-38.936801-95.595219-86.794785 0-37.765115 26.889417-69.650313 64.059992-81.533968l-94.813413-126.800941H638.393153c-23.311939 0-42.10291-20.969591-42.10291-42.103933l0.12382-45.946449c0-21.13332 18.912745-38.319747 42.184775-38.319747h336.452845c23.271006 0.020466 42.225707 17.186428 42.225707 38.341237l0.040932 45.925982c0.041956 21.112853-18.788925 42.10291-42.101887 42.10291z m-227.782843 208.334909c0 29.746488 26.601868 53.964052 59.413158 53.964052s59.413158-24.217564 59.413158-53.964052c0-29.563316-26.355251-53.594639-58.837037-53.882188h-1.151219c-32.482809 0.287549-58.83806 24.299429-58.83806 53.882188z m53.862745-105.07308l10.648524 0.618077 79.065754-103.879906H722.599997l78.69634 103.261829z m173.920098-187.467649H638.393153v42.10291h336.822259l0.662079-42.148959a5.130857 5.130857 0 0 1-0.661056 0.046049zM91.057367 761.707434h673.644517v-336.822258h84.205821V799.716096c0 25.574469-24.459065 46.319955-73.227792 46.319956H53.518403c-25.574469 0-46.461171-20.949124-46.461172-46.52257v-837.162708c0-25.574469 16.322757-42.699498 41.897226-42.699498h463.130989v84.204798H91.057367V761.707434z m378.925169-378.925168H175.263188v-42.102911h294.719348v42.102911zM638.393153 593.295793H175.263188v-42.10291H638.393153v42.10291zM175.263188 130.164804h210.514551v42.103934h-210.514551v-42.103934z"  horiz-adv-x="1024" />

    
    <glyph glyph-name="xitongguanli" unicode="&#58907;" d="M990.245733 411.445072H846.8263c-13.025665 64.183811-69.759807 112.484887-137.79125 112.484887s-124.766608-48.301076-137.792273-112.484887H34.125727c-15.542998 0-28.120454-12.577456-28.120455-28.120454 0-15.544021 12.577456-28.121478 28.120455-28.121478H571.243801c13.025665-64.184835 69.759807-112.484887 137.791249-112.484887 68.030419 0 124.765585 48.300053 137.790226 112.484887h143.420457c15.542998 0 28.120454 12.57848 28.120455 28.121478 0.001023 15.542998-12.576433 28.120454-28.120455 28.120454zM709.03505 298.960185c-46.63104 0-84.36341 37.787628-84.363409 84.36341 0 46.575782 37.732369 84.36341 84.363409 84.363409 46.630017 0 84.362386-37.787628 84.362387-84.363409 0-46.575782-37.732369-84.36341-84.362387-84.36341zM146.610614 580.171891c67.983347 0 124.753305 48.301076 137.789203 112.484888H990.246757c15.542998 0 28.120454 12.57848 28.120454 28.121477s-12.577456 28.120454-28.120454 28.120455H284.399817C271.364943 813.083545 214.594985 861.384621 146.610614 861.384621c-77.662801 0-140.606365-62.942541-140.606365-140.605341s62.943564-140.607388 140.606365-140.607389z m0 224.970798c46.630017 0 84.36341-37.788651 84.36341-84.363409 0-46.575782-37.733393-84.36341-84.36341-84.36341-46.63104 0-84.36341 37.787628-84.36341 84.36341 0 46.574758 37.732369 84.36341 84.36341 84.363409z m843.635119-731.151255h-705.845916c-13.034874 64.183811-69.805856 112.484887-137.789203 112.484887-77.662801 0-140.606365-62.943564-140.606365-140.605342 0-77.663824 62.943564-140.606365 140.606365-140.606364 67.983347 0 124.753305 48.300053 137.789203 112.484887H990.246757c15.542998 0 28.120454 12.577456 28.120454 28.121477 0 15.542998-12.577456 28.120454-28.121478 28.120455zM146.610614-38.493453c-46.63104 0-84.36341 37.787628-84.36341 84.363409 0 46.575782 37.733393 84.362386 84.36341 84.362386 46.630017 0 84.36341-37.787628 84.36341-84.362386 0-46.575782-37.733393-84.36341-84.36341-84.363409z"  horiz-adv-x="1024" />

    
    <glyph glyph-name="zhenggaijindu" unicode="&#58908;" d="M384.972397 532.229996v-253.444293h211.203236v84.48109H469.45451V532.229996h-84.482113z m256.619612-129.072681l125.691677-125.443013 62.82486-62.701041 188.474583 188.144054-42.23901 44.592615-83.415828-83.414805c0.295735 6.636141 0.458441 13.305027 0.458441 20.012799 0 244.946758-198.951191 443.48658-444.352297 443.48658-245.35915 0-444.269409-198.539822-444.26941-443.48658 0-244.905826 198.910259-443.48658 444.26941-443.48658 123.504872-0.164752 241.440911 51.109028 325.386811 141.489478l-51.523467 69.714782c-61.588707-66.248843-183.365214-126.845966-273.910416-126.722147-179.936115 0-359.947955 175.479617-362.382401 355.086228-2.433422 179.317015 160.697959 367.016955 361.359094 363.006617 219.913619-4.3951 359.414813-200.560852 359.414813-380.167462 0-10.610662 0.950651-20.971637 1.827625-31.156604L680.657746 447.748906l-39.065737-44.591591z"  horiz-adv-x="1024" />

    
    <glyph glyph-name="yijianfankui" unicode="&#58909;" d="M1001.169527 686.307164c-1.760087 2.468215-3.947915 4.677533-6.523577 6.630001-3.13234 2.339278-31.326473 23.087834-62.911842 37.957496-10.899234 5.127787-21.972431 7.723915-32.914644 7.723916-32.057113 0-49.823755-21.435195-53.085032-25.726942l-36.906561-51.647287s-0.257873-0.364297-0.257873-0.450254c-0.213871-0.213871-0.342808-0.450255-0.514723-0.665149L557.005518 275.402653c-1.63115-2.553149-2.575662-5.085832-3.2623-7.531534-0.342808-0.707105-0.772596-1.694595-0.98749-2.918469l-28.795837-145.608285c-2.317789-11.930727 2.876514-24.075325 13.304004-30.855752 5.149277-3.390213 11.200086-5.192256 17.46579-5.192256 5.964852 0 11.800767 1.674129 16.950044 4.827959l127.027092 79.284741c2.360767 1.460258 3.776 3.219321 4.677532 4.270256 0.042979 0.107447 0.128937 0.171915 0.214895 0.236384l0.085957 0.064468c0.943488 0.686638 2.703575 1.973958 4.204766 4.161787l264.567631 385.843742c6.65149 9.419534 28.709879 40.832987 36.776601 53.642734 19.48682 31.048133-5.232165 66.795289-8.064676 70.678736z m-401.936255-508.685511l5.964852 30.082132 20.342304-13.68979-26.307156-16.392342z m74.198909 58.020438l-47.420009 32.013111L843.759451 601.315444l55.102992-36.906561-225.430262-328.766792z m260.275885 379.212717l-55.402821 37.078477 17.207917 24.074302c0.858554 0.514723 2.575662 1.330298 4.634554 1.330298 1.373277 0 2.746554-0.321318 4.204765-1.00898 18.883069-8.904811 37.163411-20.963451 47.549969-28.172643 0.686638-1.480724 1.330298-2.939959 1.759063-4.098341-3.988848-6.092765-10.683317-15.877619-19.953447-29.203113zM490.69937 447.993476s-27.246551 1.363044-44.541449 1.363044H182.491823c-17.324574 0-17.324574 0-36.691668 0.938372l-0.147356-47.931662 31.474852 0.194428 312.699862 0.032746s1.766226 35.933397 0.871857 45.403072z m263.069511-394.136615v-43.943838H94.603123V756.966457H753.768881v-43.943838h87.888699v43.943838c0 46.090734-58.406225 87.524402-105.956194 87.524402H92.928994c-47.548946 0-86.257549-37.464263-86.257549-83.532485v-755.25114c0-46.089711 37.685297-83.553974 85.234243-83.553974h662.214187c47.549969 0 87.536682 33.505092 87.536682 79.574337V185.689399h-87.8887v-131.832538zM621.93532 625.132896H145.652799c-0.679475-2.53166 0.147356-43.159986 0.147356-43.159986s19.397792-0.783853 36.691668-0.783852h439.443497v43.943838zM155.009911 228.422665s10.188037 1.211595 27.481912 1.211595l218.819704 1.553379 0.901533 42.392506H154.862555l0.147356-45.15748z"  horiz-adv-x="1024" />

    
    <glyph glyph-name="yisipaikou" unicode="&#58910;" d="M90.649068 805.097664h800.646026v-337.114924h84.278475V847.237413c0 34.771945-28.840862 42.303478-73.290213 42.303478H53.077358c-25.595958 0-46.50108-20.986987-46.501081-46.582944v-837.890279c0-25.595958 16.337083-42.75578 41.934065-42.755779h589.95035v84.278475H90.649068V805.097664z m674.228825-168.556951H174.927543v-42.139749h589.95035v42.139749zM174.927543 173.007565h337.114924v42.139749H174.927543v-42.139749z m421.393399 252.836449H174.927543v-42.139749h421.393399v42.139749zM807.017642-37.688111c-0.494257 1.070378-1.193175 0 0 0z m0-84.278476h84.277452V-37.688111h-84.277452v-84.278476z m206.704782 394.891816c-6.66684 26.912953-21.193695 48.476061-43.949978 64.525595-13.909801 9.79304-28.970822 17.118889-45.184085 22.468735-18.47784 6.008854-37.69553 9.135054-57.118905 10.205432-17.653055 0.946558-35.307134 0.494257-52.797484-2.797719-15.102976-2.797719-29.670763-7.323802-43.250036-14.402011-27.695782-14.443967-48.148603-35.473933-60.288085-64.361867-6.048763-14.443967-9.670244-29.465079-11.645224-44.937468-0.329505-2.798742-0.659009-5.473665-0.78283-8.230452-0.246617-4.114714 1.604544-7.325849 4.978385-9.547447 1.316995-0.946558 2.922563-1.563612 4.445242-2.139733 2.551102-0.781806 5.226025-0.781806 7.900947-0.781806h61.974494c3.621481 0.122797 6.502088 1.769296 8.641821 4.64888 1.480724 2.099824 2.304486 4.445242 2.880606 6.873548 0.493234 1.604544 0.699941 3.332908 1.069355 5.102204 2.880607 12.550851 8.600889 23.991414 16.173355 34.443464 4.15667 5.761214 9.670244 10.123568 16.049534 13.415544 6.172583 3.127224 12.674671 4.979408 19.423375 6.007831 7.900947 1.193175 15.925714 1.193175 23.826662 0.618077 7.119141-0.453325 13.991666-1.769296 20.74037-4.198626 9.547447-3.497661 17.118889-9.340739 22.551622-17.900695 5.596462-8.889461 9.546424-18.435884 11.028171-28.887934 0.822738-5.349845 1.316995-10.69969 0.576121-16.049534-0.781806-6.625908-3.004427-12.922311-6.007831-18.848277-3.374864-6.665817-7.571443-12.674671-12.222369-18.517749-5.02034-6.172583-10.904351-11.522428-17.571191-15.801895-15.349593-10.041704-30.370705-20.741393-44.527122-32.344662-8.147564-6.66684-15.96767-13.497409-22.960945-21.316491-3.211135-3.621481-5.762237-7.819083-7.65433-12.345166-2.098801-5.102205-2.661619-13.495362-3.004427-19.093871-0.73985-12.076036 0.410346-30.222325 0-42.139749 1.39886-0.081864 40.74089 0 42.139749 0l41.678238-0.064468-0.255826 2.447748c-0.265036 2.53166-0.396019 4.858658-0.065492 7.410784l1.399883 10.863418c0.945535 7.407714 3.496637 14.279215 8.023744 20.329001 2.346441 3.127224 4.773723 6.172583 7.448646 8.971326 5.266957 5.472642 11.028171 10.246365 17.324574 14.566763 8.972349 6.131651 18.147312 11.851932 26.626427 18.600637 10.370185 8.024767 20.615527 16.173354 30.369681 24.856108 7.695263 6.996344 14.32117 15.143908 19.671016 24.11421 9.054213 15.021112 14.649652 31.317263 16.049534 48.764634 1.150196 15.349593-0.124843 30.616298-3.705392 45.473681z m-206.704782-226.334865c-0.039909-1.158383 0 0 0 0z m0.430812-0.02456c0.303922-0.01842 0.189312-0.011256 0 0z m0 0l-0.349971 0.020467 0.349971-0.020467z"  horiz-adv-x="1024" />

    
    <glyph glyph-name="guanbi" unicode="&#58911;" d="M661.231301 383.931438l326.678224 326.697667c41.458227 41.458227 41.458227 108.602464 0 150.060691s-108.603487 41.458227-150.061714 0L511.146051 534.007479 184.442244 860.689796c-41.457204 41.458227-108.602464 41.458227-150.060691 0-41.458227-41.458227-41.458227-108.602464 0-150.060691l326.677201-326.697667L34.382577 57.27368c-41.458227-41.459251-41.458227-108.703771 0-150.160974 41.457204-41.357943 108.603487-41.357943 150.06069 0L511.146051 233.835955l326.702783-326.723249c41.458227-41.357943 108.603487-41.357943 150.061715 0 41.458227 41.458227 41.458227 108.702748 0 150.160974L661.231301 383.931438z"  horiz-adv-x="1024" />

    
    <glyph glyph-name="xiugaimima" unicode="&#58912;" d="M872.677061 528.031371h-72.098062V672.228517c0 151.800311-129.339764 216.33-288.393269 216.33-159.052482 0-288.393269-64.529689-288.393269-216.33v-144.197146h-72.098062c-39.851637 0-72.099085-37.387515-72.099085-75.407434v-504.688477c0-38.020942 26.755364-68.790736 66.536393-68.790736l726.545354-0.033769c39.781028 0 72.098062 30.803563 72.098061 68.824505V452.623937c0 38.019918-32.317033 75.407434-72.098061 75.407434z m-504.688477 72.098061c0 113.851001 24.924669 144.197146 144.196123 144.197147 119.272477 0 144.19817-30.346145 144.198169-144.197147v-72.099085H367.988584v72.099085z m432.590415-576.785515h-576.786538V383.835248h576.786538v-360.491331z m-216.295207 72.098061V311.737186H440.087669v-216.295208h72.098061c19.925818 0 75.899644-0.071631 72.098062 0z"  horiz-adv-x="1024" />

    
    <glyph glyph-name="tuichu" unicode="&#58913;" d="M795.27418 716.12733l-47.412846-166.988222c46.792723-54.466496 75.083046-125.289518 75.083046-202.723098 0-171.918511-139.405003-311.286676-311.285653-311.286676-171.880649 0-311.286676 139.368164-311.286675 311.286676 0 77.529771 28.358885 148.432611 75.254961 202.925712l-47.208185 166.265768c-111.550609-85.301781-183.499267-219.681328-183.499267-370.8257 0-257.783111 209.223139-466.74019 467.271286-466.74019 258.049171 0 467.272309 208.957079 467.272309 466.74019-0.001023 151.453411-72.246441 286.070364-184.188976 371.34554zM511.810177 423.380916c42.970674 0 77.877695 34.871205 77.877695 77.878718V812.774507c0 43.008536-34.907021 77.878718-77.877695 77.878718-43.046399 0-77.878718-34.871205-77.878719-77.878718v-311.51385c0-43.008536 34.83232-77.879742 77.878719-77.879741z"  horiz-adv-x="1024" />

    
    <glyph glyph-name="gerenxinxi" unicode="&#58914;" d="M512.192893 166.323329c0-39.972387 32.402991-72.444962 72.444963-72.444963h289.779849c39.972387 0 72.444962 32.472576 72.444962 72.444963 0 40.041972-32.472576 72.444962-72.444962 72.444962h-289.779849c-40.041972 0-72.444962-32.402991-72.444963-72.444962z m-0.211824 145.525398c120.269177 0 217.759559 92.608188 217.759559 206.793809V684.048727c0 114.185622-97.490382 206.757994-217.759559 206.757994-120.340809 0-217.829144-92.571349-217.829144-206.757994V518.642536c0.001023-114.185622 97.489358-206.79381 217.829144-206.793809zM439.748954 673.471834c0 40.007179 32.401967 72.444962 72.443939 72.444962 39.97341 0 72.444962-32.437783 72.444963-72.444962v-144.889925c0-40.007179-32.471552-72.443939-72.444963-72.443939-40.041972 0-72.443939 32.43676-72.443939 72.443939v144.889925zM223.051587 89.502709V150.20114l53.375651 53.334719c24.902156 24.973788 24.902156 65.370847 0 90.273003-24.90318 24.90318-65.300238 24.90318-90.202394 0l-90.27198-90.273003c-13.870916-13.870916-20.005636-32.525788-18.423605-50.636261 0-0.169869-0.00307-0.331551-0.00307-0.502443V-26.390811c0-53.626361 38.911218-97.064686 86.87665-97.064686h202.902176V20.159388H223.051587v69.343321z m651.366118-68.069305H512.192893c-40.041972 0-72.443939-32.401967-72.443939-72.444962 0-39.97341 32.401967-72.444962 72.443939-72.444962h362.224812c39.972387 0 72.444962 32.471552 72.444962 72.444962 0 40.042995-32.473599 72.444962-72.444962 72.444962z"  horiz-adv-x="1024" />

    


  </font>
</defs>
</svg>
